<svg width="1024" height="1024" viewBox="0 0 1024 1024" fill="none" xmlns="http://www.w3.org/2000/svg">
<path d="M494.221 528.548C494.221 573.262 465.14 607.232 431.794 607.232C398.449 607.232 369.368 573.262 369.368 528.548C369.368 483.833 398.449 449.863 431.794 449.863C465.14 449.863 494.221 483.833 494.221 528.548Z" stroke="white" stroke-width="12"/>
<path d="M425.008 84.6844C425.008 129.398 395.927 163.369 362.581 163.369C329.236 163.369 300.155 129.398 300.155 84.6844C300.155 39.9703 329.236 6 362.581 6C395.927 6 425.008 39.9703 425.008 84.6844Z" stroke="white" stroke-width="12"/>
<path d="M288.942 84.6844C288.942 129.398 259.861 163.369 226.515 163.369C193.169 163.369 164.089 129.398 164.089 84.6844C164.089 39.9703 193.169 6 226.515 6C259.861 6 288.942 39.9703 288.942 84.6844Z" stroke="white" stroke-width="12"/>
<path d="M357.368 232.639C357.368 277.353 328.287 311.323 294.942 311.323C261.596 311.323 232.515 277.353 232.515 232.639C232.515 187.925 261.596 153.954 294.942 153.954C328.287 153.954 357.368 187.925 357.368 232.639Z" stroke="white" stroke-width="12"/>
<path d="M698.714 84.6844C698.714 129.398 669.633 163.369 636.287 163.369C602.941 163.369 573.861 129.398 573.861 84.6844C573.861 39.9703 602.941 6 636.287 6C669.633 6 698.714 39.9703 698.714 84.6844Z" stroke="white" stroke-width="12"/>
<path d="M834.78 84.6844C834.78 129.398 805.699 163.369 772.353 163.369C739.008 163.369 709.927 129.398 709.927 84.6844C709.927 39.9703 739.008 6 772.353 6C805.699 6 834.78 39.9703 834.78 84.6844Z" stroke="white" stroke-width="12"/>
<path d="M561.861 84.6844C561.861 129.398 532.78 163.369 499.434 163.369C466.088 163.369 437.008 129.398 437.008 84.6844C437.008 39.9703 466.088 6 499.434 6C532.78 6 561.861 39.9703 561.861 84.6844Z" stroke="white" stroke-width="12"/>
<path d="M563.434 676.502C563.434 721.216 534.353 755.186 501.007 755.186C467.661 755.186 438.581 721.216 438.581 676.502C438.581 631.788 467.661 597.818 501.007 597.818C534.353 597.818 563.434 631.788 563.434 676.502Z" stroke="white" stroke-width="12"/>
<path d="M630.287 528.548C630.287 573.262 601.207 607.232 567.861 607.232C534.515 607.232 505.434 573.262 505.434 528.548C505.434 483.833 534.515 449.863 567.861 449.863C601.207 449.863 630.287 483.833 630.287 528.548Z" stroke="white" stroke-width="12"/>
<path d="M562.647 380.593C562.647 425.307 533.567 459.278 500.221 459.278C466.875 459.278 437.794 425.307 437.794 380.593C437.794 335.879 466.875 301.909 500.221 301.909C533.567 301.909 562.647 335.879 562.647 380.593Z" stroke="white" stroke-width="12"/>
<path d="M493.434 232.639C493.434 277.353 464.354 311.323 431.008 311.323C397.662 311.323 368.581 277.353 368.581 232.639C368.581 187.925 397.662 153.954 431.008 153.954C464.354 153.954 493.434 187.925 493.434 232.639Z" stroke="white" stroke-width="12"/>
<path d="M426.581 380.593C426.581 425.307 397.5 459.278 364.154 459.278C330.809 459.278 301.728 425.307 301.728 380.593C301.728 335.879 330.809 301.909 364.154 301.909C397.5 301.909 426.581 335.879 426.581 380.593Z" stroke="white" stroke-width="12"/>
<path d="M630.287 232.639C630.287 277.353 601.207 311.323 567.861 311.323C534.515 311.323 505.434 277.353 505.434 232.639C505.434 187.925 534.515 153.954 567.861 153.954C601.207 153.954 630.287 187.925 630.287 232.639Z" stroke="white" stroke-width="12"/>
<path d="M767.14 232.639C767.14 277.353 738.059 311.323 704.714 311.323C671.368 311.323 642.287 277.353 642.287 232.639C642.287 187.925 671.368 153.954 704.714 153.954C738.059 153.954 767.14 187.925 767.14 232.639Z" stroke="white" stroke-width="12"/>
<path d="M699.5 380.593C699.5 425.307 670.419 459.278 637.074 459.278C603.728 459.278 574.647 425.307 574.647 380.593C574.647 335.879 603.728 301.909 637.074 301.909C670.419 301.909 699.5 335.879 699.5 380.593Z" stroke="white" stroke-width="12"/>
<line x1="684.264" y1="523.521" x2="998.869" y2="523.521" stroke="white" stroke-width="12"/>
<line y1="523.521" x2="314.604" y2="523.521" stroke="white" stroke-width="12"/>
<path d="M135.014 879.04C135.014 879.787 134.687 880.253 134.034 880.44C133.381 880.627 132.774 880.72 132.214 880.72H111.354C110.234 880.72 109.301 880.673 108.554 880.58C107.901 880.393 107.154 879.88 106.314 879.04C105.474 878.2 104.727 877.313 104.074 876.38C103.421 875.353 102.721 874.373 101.974 873.44C100.481 871.387 98.9874 869.38 97.4941 867.42C96.0008 865.46 94.4608 863.5 92.8741 861.54L68.0941 828.64L60.5341 834.52C60.5341 839.747 60.4874 845.02 60.3941 850.34C60.3941 855.567 60.3941 860.793 60.3941 866.02C60.3941 868.353 60.8608 870.64 61.7941 872.88C62.7274 875.027 64.6408 876.1 67.5341 876.1C68.2808 876.1 69.0274 876.1 69.7741 876.1C70.6141 876.007 71.4074 875.96 72.1541 875.96C72.9008 875.96 73.4608 876.24 73.8341 876.8C74.2074 877.267 74.3941 877.873 74.3941 878.62C74.3941 879.833 74.0674 880.58 73.4141 880.86C72.8541 881.047 72.0608 881.14 71.0341 881.14C68.4208 881.14 65.7608 881.093 63.0541 881C60.4408 880.813 57.7808 880.72 55.0741 880.72C51.8074 880.72 48.5408 880.767 45.2741 880.86C42.0074 880.953 38.7408 881 35.4741 881C34.5408 881 33.9341 880.767 33.6541 880.3C33.4674 879.74 33.3741 879.087 33.3741 878.34C33.3741 877.22 33.9341 876.52 35.0541 876.24C36.2674 875.96 37.6208 875.82 39.1141 875.82C40.7008 875.727 41.9608 875.493 42.8941 875.12C44.9474 874.373 46.2541 873.02 46.8141 871.06C47.3741 869.1 47.6541 867.14 47.6541 865.18C47.6541 853.14 47.6074 841.147 47.5141 829.2C47.5141 817.16 47.5141 805.12 47.5141 793.08C47.5141 790.56 47.0474 788.32 46.1141 786.36C45.2741 784.307 43.3608 783.28 40.3741 783.28C39.7208 783.28 39.0208 783.327 38.2741 783.42C37.6208 783.42 36.9208 783.42 36.1741 783.42C34.4008 783.42 33.5141 782.533 33.5141 780.76C33.5141 779.547 33.7474 778.8 34.2141 778.52C34.7741 778.24 35.6141 778.1 36.7341 778.1C40.6541 778.1 44.5741 778.147 48.4941 778.24C52.4141 778.333 56.3341 778.38 60.2541 778.38C62.1208 778.38 63.9874 778.333 65.8541 778.24C67.7208 778.147 69.5874 778.1 71.4541 778.1C72.2008 778.1 72.8074 778.24 73.2741 778.52C73.8341 778.707 74.1141 779.22 74.1141 780.06C74.1141 781.647 73.6474 782.627 72.7141 783C71.7808 783.28 70.6141 783.42 69.2141 783.42C67.9074 783.327 66.5541 783.467 65.1541 783.84C63.7541 784.12 62.5874 785.007 61.6541 786.5C60.7208 787.9 60.2541 790.28 60.2541 793.64C60.2541 799.613 60.3008 805.587 60.3941 811.56C60.4874 817.533 60.4408 823.507 60.2541 829.48C68.0941 822.293 75.8408 815.013 83.4941 807.64C91.1474 800.267 98.4741 792.613 105.474 784.68C106.314 783.653 107.154 782.673 107.994 781.74C108.927 780.713 109.721 779.687 110.374 778.66C110.841 778.473 111.774 778.333 113.174 778.24C114.574 778.147 116.021 778.1 117.514 778.1C119.101 778.1 120.174 778.1 120.734 778.1C121.294 778.1 122.087 778.1 123.114 778.1C124.141 778.007 125.027 778.1 125.774 778.38C126.614 778.567 127.034 779.127 127.034 780.06C127.034 780.713 126.894 781.18 126.614 781.46C126.427 781.647 126.054 781.833 125.494 782.02C124.281 782.393 123.067 782.673 121.854 782.86C120.641 783.047 119.427 783.373 118.214 783.84C117.187 784.213 116.207 784.773 115.274 785.52C114.434 786.267 113.641 787.013 112.894 787.76L77.8941 820.38C83.7741 827.473 89.5141 834.707 95.1141 842.08C100.807 849.453 106.687 856.593 112.754 863.5C114.061 864.993 115.414 866.44 116.814 867.84C118.307 869.24 119.801 870.593 121.294 871.9C123.254 873.58 125.121 874.607 126.894 874.98C128.667 875.26 130.674 875.773 132.914 876.52C133.661 876.8 134.174 877.08 134.454 877.36C134.827 877.64 135.014 878.2 135.014 879.04ZM303.294 780.76C303.294 782.253 302.781 783.047 301.754 783.14C300.821 783.233 299.841 783.28 298.814 783.28C296.107 783.28 294.101 783.653 292.794 784.4C291.581 785.053 290.274 786.593 288.874 789.02C287.381 791.633 285.981 794.34 284.674 797.14C283.461 799.94 282.201 802.74 280.894 805.54C278.281 811.047 275.574 816.6 272.774 822.2C270.067 827.707 267.361 833.213 264.654 838.72C262.507 843.293 260.314 847.867 258.074 852.44C255.927 857.013 253.501 861.493 250.794 865.88C247.901 870.827 244.307 874.933 240.014 878.2C235.721 881.467 230.541 883.1 224.474 883.1C222.141 883.1 219.854 882.727 217.614 881.98C215.374 881.327 213.507 880.207 212.014 878.62C210.521 877.033 209.774 874.84 209.774 872.04C209.774 868.773 210.754 866.58 212.714 865.46C214.674 864.34 217.101 863.78 219.994 863.78C220.554 867.047 221.814 869.707 223.774 871.76C225.734 873.72 228.441 874.7 231.894 874.7C235.534 874.7 238.287 873.627 240.154 871.48C242.114 869.24 243.841 866.673 245.334 863.78C246.361 861.633 247.247 859.44 247.994 857.2C248.741 854.96 249.114 852.673 249.114 850.34C249.114 849.687 249.021 849.033 248.834 848.38C248.741 847.727 248.601 847.073 248.414 846.42C247.014 842.22 245.287 838.16 243.234 834.24C241.181 830.32 239.267 826.353 237.494 822.34C236.654 820.38 235.487 817.813 233.994 814.64C232.594 811.373 231.054 807.967 229.374 804.42C227.694 800.873 226.014 797.653 224.334 794.76C222.747 791.773 221.394 789.58 220.274 788.18C218.594 786.313 216.961 785.333 215.374 785.24C213.787 785.053 211.874 784.96 209.634 784.96C208.794 784.96 208.094 784.82 207.534 784.54C207.067 784.26 206.834 783.607 206.834 782.58C206.834 781.553 207.394 780.76 208.514 780.2C208.701 780.107 209.774 779.967 211.734 779.78C213.787 779.5 216.167 779.267 218.874 779.08C221.581 778.8 224.007 778.613 226.154 778.52C228.394 778.333 229.794 778.24 230.354 778.24C231.381 778.24 232.034 778.707 232.314 779.64C232.781 780.013 233.154 780.48 233.434 781.04C233.807 781.507 234.087 781.973 234.274 782.44C238.754 791.773 242.907 801.293 246.734 811C250.654 820.613 254.621 830.133 258.634 839.56C259.287 838.253 260.221 836.247 261.434 833.54C262.741 830.833 264.187 827.707 265.774 824.16C267.454 820.52 269.134 816.833 270.814 813.1C272.494 809.273 274.034 805.633 275.434 802.18C276.834 798.727 277.954 795.74 278.794 793.22C279.727 790.7 280.194 789.02 280.194 788.18C280.194 787.713 280.194 787.247 280.194 786.78C280.287 786.313 280.334 785.847 280.334 785.38C280.334 784.633 280.007 784.12 279.354 783.84C278.887 783.467 277.954 783.28 276.554 783.28C275.247 783.187 273.894 783.14 272.494 783.14C271.094 783.14 270.067 783.14 269.414 783.14C268.574 783.14 267.874 783 267.314 782.72C266.754 782.347 266.474 781.693 266.474 780.76C266.474 779.733 266.894 779.08 267.734 778.8C268.667 778.427 269.647 778.24 270.674 778.24C271.794 778.24 272.681 778.24 273.334 778.24C275.481 778.24 277.581 778.287 279.634 778.38C281.781 778.473 283.927 778.52 286.074 778.52C288.594 778.52 291.114 778.473 293.634 778.38C296.154 778.193 298.721 778.1 301.334 778.1C302.174 778.1 302.687 778.38 302.874 778.94C303.154 779.407 303.294 780.013 303.294 780.76ZM457.014 852.02C457.014 844.273 455.147 838.487 451.414 834.66C447.681 830.74 441.941 828.78 434.194 828.78C432.981 828.78 431.721 828.78 430.414 828.78C429.201 828.687 427.941 828.64 426.634 828.64C423.461 828.64 420.241 828.733 416.974 828.92C413.707 829.013 410.441 829.153 407.174 829.34V871.76C407.174 873.44 407.781 874.7 408.994 875.54C410.207 876.287 411.607 876.753 413.194 876.94C414.781 877.127 416.181 877.22 417.394 877.22C419.261 877.22 421.127 877.22 422.994 877.22C424.861 877.127 426.727 877.033 428.594 876.94C433.821 876.66 438.581 875.68 442.874 874C447.167 872.227 450.574 869.567 453.094 866.02C455.707 862.38 457.014 857.713 457.014 852.02ZM471.714 849.92C471.714 856.733 470.034 862.567 466.674 867.42C463.314 872.18 458.461 875.773 452.114 878.2C448.194 879.693 443.854 880.58 439.094 880.86C434.334 881.047 429.901 881.14 425.794 881.14C421.314 881.14 416.834 881.093 412.354 881C407.874 880.813 403.394 880.72 398.914 880.72C396.114 880.72 393.267 880.813 390.374 881C387.574 881.093 384.774 881.14 381.974 881.14C380.574 881.14 379.874 880.393 379.874 878.9C379.874 878.527 379.967 878.107 380.154 877.64C380.341 877.08 380.621 876.8 380.994 876.8C382.301 876.8 383.607 876.8 384.914 876.8C386.221 876.707 387.481 876.52 388.694 876.24C390.841 875.773 392.241 875.027 392.894 874C393.547 872.88 393.967 871.293 394.154 869.24C394.341 867.28 394.434 865.32 394.434 863.36C394.434 861.4 394.434 859.487 394.434 857.62C394.434 846.327 394.387 835.08 394.294 823.88C394.294 812.587 394.294 801.34 394.294 790.14C394.294 788.647 394.061 787.34 393.594 786.22C393.127 785.1 392.147 784.26 390.654 783.7C389.721 783.233 388.414 783 386.734 783C385.147 783 383.841 783 382.814 783C381.227 783 380.434 782.253 380.434 780.76C380.434 780.387 380.527 779.873 380.714 779.22C380.994 778.567 381.367 778.24 381.834 778.24C383.047 778.24 384.214 778.287 385.334 778.38C386.547 778.473 387.761 778.52 388.974 778.52C394.481 778.52 399.987 778.567 405.494 778.66C411.001 778.753 416.461 778.8 421.874 778.8C425.607 778.8 429.341 778.753 433.074 778.66C436.807 778.567 440.541 778.473 444.274 778.38C446.607 778.287 448.894 778.193 451.134 778.1C453.374 777.913 455.661 777.82 457.994 777.82C458.461 777.82 458.741 778.007 458.834 778.38C459.021 778.753 459.301 779.92 459.674 781.88C460.047 783.84 460.421 786.033 460.794 788.46C461.261 790.887 461.634 793.08 461.914 795.04C462.287 797 462.474 798.213 462.474 798.68C462.474 799.427 462.194 800.08 461.634 800.64C461.074 801.107 460.421 801.34 459.674 801.34C458.834 801.34 458.274 800.873 457.994 799.94C456.781 796.393 455.474 793.5 454.074 791.26C452.674 789.02 450.061 787.153 446.234 785.66C444.274 784.913 441.754 784.353 438.674 783.98C435.687 783.607 432.654 783.373 429.574 783.28C426.494 783.187 423.834 783.14 421.594 783.14C420.941 783.14 419.634 783.14 417.674 783.14C415.807 783.14 413.941 783.187 412.074 783.28C410.301 783.28 409.227 783.373 408.854 783.56C408.387 783.747 407.967 783.98 407.594 784.26C407.314 784.54 407.174 785.007 407.174 785.66V824.72C411.281 824.533 415.434 824.393 419.634 824.3C423.834 824.207 427.987 824.16 432.094 824.16C435.081 824.16 438.021 824.207 440.914 824.3C443.807 824.393 446.654 824.767 449.454 825.42C453.561 826.353 457.294 827.94 460.654 830.18C464.014 832.327 466.674 835.08 468.634 838.44C470.687 841.707 471.714 845.533 471.714 849.92ZM609.894 839.98C606.721 831.393 603.594 822.807 600.514 814.22C597.434 805.54 594.261 796.907 590.994 788.32C587.821 797 584.601 805.68 581.334 814.36C578.161 822.947 574.801 831.487 571.254 839.98H609.894ZM652.454 878.34C652.454 878.993 652.314 879.6 652.034 880.16C651.754 880.72 651.241 881 650.494 881C647.601 881 644.754 880.953 641.954 880.86C639.154 880.767 636.354 880.72 633.554 880.72C629.634 880.72 625.761 880.767 621.934 880.86C618.107 880.953 614.281 881 610.454 881C609.987 881 609.661 880.72 609.474 880.16C609.287 879.507 609.194 879.04 609.194 878.76C609.194 877.453 609.801 876.753 611.014 876.66C612.321 876.473 613.394 876.38 614.234 876.38C615.727 876.38 617.314 876.24 618.994 875.96C620.674 875.587 621.514 874.373 621.514 872.32C621.514 871.48 621.094 869.8 620.254 867.28C619.414 864.76 618.387 861.96 617.174 858.88C615.961 855.8 614.794 852.953 613.674 850.34C612.647 847.633 611.901 845.673 611.434 844.46H570.134C569.854 845.207 569.294 846.653 568.454 848.8C567.707 850.853 566.821 853.233 565.794 855.94C564.861 858.553 563.927 861.167 562.994 863.78C562.061 866.3 561.267 868.493 560.614 870.36C560.054 872.227 559.774 873.347 559.774 873.72C559.774 874.653 560.287 875.353 561.314 875.82C562.341 876.287 563.601 876.567 565.094 876.66C566.587 876.753 567.987 876.8 569.294 876.8C570.694 876.707 571.721 876.66 572.374 876.66C573.121 876.66 573.541 876.94 573.634 877.5C573.821 877.967 573.914 878.48 573.914 879.04C573.914 880.347 573.261 881 571.954 881H542.554C541.901 881 541.434 880.767 541.154 880.3C540.967 879.833 540.874 879.367 540.874 878.9C540.874 877.407 541.621 876.66 543.114 876.66C546.194 876.66 548.667 876.007 550.534 874.7C552.401 873.3 553.987 871.247 555.294 868.54C555.761 867.513 556.227 866.44 556.694 865.32C557.161 864.2 557.627 863.08 558.094 861.96C563.507 848.147 568.781 834.333 573.914 820.52C579.141 806.613 584.274 792.707 589.314 778.8C590.807 778.333 592.441 777.913 594.214 777.54C595.987 777.167 597.667 776.98 599.254 776.98C599.627 776.98 599.814 777.12 599.814 777.4L632.154 858.74C632.901 860.513 633.647 862.38 634.394 864.34C635.141 866.207 635.934 868.073 636.774 869.94C637.987 872.367 639.481 873.907 641.254 874.56C643.027 875.213 644.754 875.54 646.434 875.54C648.114 875.54 649.514 875.633 650.634 875.82C651.847 876.007 652.454 876.847 652.454 878.34ZM823.114 878.48C823.114 879.787 822.787 880.58 822.134 880.86C821.574 881.047 820.734 881.14 819.614 881.14C817.001 881.14 814.387 881.093 811.774 881C809.254 880.813 806.687 880.72 804.074 880.72C801.181 880.72 798.287 880.813 795.394 881C792.594 881.187 789.747 881.28 786.854 881.28C785.454 881.28 784.754 880.58 784.754 879.18C784.754 877.593 785.081 876.753 785.734 876.66C786.387 876.567 787.321 876.52 788.534 876.52C792.267 876.52 794.601 875.587 795.534 873.72C796.561 871.853 797.074 869.287 797.074 866.02C797.074 860.233 797.027 854.447 796.934 848.66C796.934 842.873 796.934 837.133 796.934 831.44H738.694V866.16C738.694 868.587 739.114 870.873 739.954 873.02C740.794 875.073 742.707 876.1 745.694 876.1C746.441 876.1 747.187 876.1 747.934 876.1C748.774 876.007 749.614 875.96 750.454 875.96C751.201 875.96 751.667 876.24 751.854 876.8C752.041 877.267 752.134 877.827 752.134 878.48C752.134 879.787 751.807 880.58 751.154 880.86C750.594 881.047 749.754 881.14 748.634 881.14C746.021 881.14 743.407 881.093 740.794 881C738.274 880.813 735.707 880.72 733.094 880.72C730.107 880.72 727.121 880.813 724.134 881C721.147 881.187 718.161 881.28 715.174 881.28C713.774 881.28 713.074 880.58 713.074 879.18C713.074 877.407 713.821 876.52 715.314 876.52C716.807 876.427 718.114 876.38 719.234 876.38C721.194 876.38 722.641 875.82 723.574 874.7C724.601 873.487 725.254 872.087 725.534 870.5C725.907 868.82 726.094 867.233 726.094 865.74C726.094 853.7 726.047 841.707 725.954 829.76C725.954 817.72 725.954 805.68 725.954 793.64C725.954 790.933 725.394 788.553 724.274 786.5C723.247 784.353 721.194 783.28 718.114 783.28C717.367 783.28 716.621 783.327 715.874 783.42C715.221 783.513 714.521 783.56 713.774 783.56C712.467 783.56 711.814 782.813 711.814 781.32C711.814 780.107 712.047 779.313 712.514 778.94C712.981 778.567 713.821 778.38 715.034 778.38C717.741 778.38 720.447 778.473 723.154 778.66C725.954 778.753 728.754 778.8 731.554 778.8C734.167 778.8 736.734 778.753 739.254 778.66C741.867 778.567 744.481 778.427 747.094 778.24C747.467 778.147 747.981 778.1 748.634 778.1C750.127 778.1 750.874 778.893 750.874 780.48C750.874 782.067 750.501 782.86 749.754 782.86C749.007 782.86 748.121 782.86 747.094 782.86C743.267 782.86 740.841 783.84 739.814 785.8C738.881 787.76 738.414 790.373 738.414 793.64C738.414 798.773 738.414 804 738.414 809.32C738.507 814.547 738.601 819.773 738.694 825H796.934C796.934 819.773 796.934 814.547 796.934 809.32C797.027 804.093 797.074 798.867 797.074 793.64C797.074 791.213 796.607 788.88 795.674 786.64C794.834 784.4 792.921 783.28 789.934 783.28C789.094 783.28 788.301 783.327 787.554 783.42C786.807 783.513 786.061 783.56 785.314 783.56C784.007 783.56 783.354 782.813 783.354 781.32C783.354 780.013 783.587 779.22 784.054 778.94C784.521 778.567 785.361 778.38 786.574 778.38C789.281 778.38 791.941 778.473 794.554 778.66C797.167 778.753 799.827 778.8 802.534 778.8C805.147 778.8 807.761 778.753 810.374 778.66C813.081 778.567 815.741 778.427 818.354 778.24C818.634 778.147 818.914 778.1 819.194 778.1C819.474 778.1 819.754 778.1 820.034 778.1C821.527 778.1 822.274 778.893 822.274 780.48C822.274 781.973 821.854 782.767 821.014 782.86C820.267 782.86 819.381 782.86 818.354 782.86C814.434 782.86 811.961 783.887 810.934 785.94C810.001 787.9 809.534 790.56 809.534 793.92C809.534 805.96 809.534 818 809.534 830.04C809.627 842.08 809.674 854.12 809.674 866.16C809.674 868.587 810.094 870.873 810.934 873.02C811.774 875.073 813.687 876.1 816.674 876.1C817.421 876.1 818.167 876.1 818.914 876.1C819.754 876.007 820.594 875.96 821.434 875.96C822.181 875.96 822.647 876.24 822.834 876.8C823.021 877.267 823.114 877.827 823.114 878.48ZM965.214 852.3C965.214 844.553 963.347 838.767 959.614 834.94C955.881 831.113 950.141 829.2 942.394 829.2C941.087 829.2 939.827 829.2 938.614 829.2C937.401 829.107 936.141 829.06 934.834 829.06C932.687 829.06 930.541 829.153 928.394 829.34C926.247 829.527 924.101 829.667 921.954 829.76V871.9C921.954 873.58 922.561 874.793 923.774 875.54C924.987 876.193 926.387 876.613 927.974 876.8C929.561 876.987 930.961 877.08 932.174 877.08C936.281 877.08 940.294 876.707 944.214 875.96C948.134 875.12 951.681 873.813 954.854 872.04C958.027 870.173 960.547 867.653 962.414 864.48C964.281 861.213 965.214 857.153 965.214 852.3ZM979.914 850.2C979.914 857.013 978.187 862.753 974.734 867.42C971.374 871.993 966.521 875.493 960.174 877.92C956.161 879.413 951.867 880.3 947.294 880.58C942.814 880.767 938.474 880.86 934.274 880.86C930.821 880.86 927.367 880.813 923.914 880.72C920.554 880.627 917.147 880.58 913.694 880.58C910.801 880.58 907.954 880.673 905.154 880.86C902.354 880.953 899.554 881 896.754 881C895.354 881 894.654 880.3 894.654 878.9C894.654 877.407 894.981 876.707 895.634 876.8C896.381 876.8 897.221 876.8 898.154 876.8C901.141 876.8 903.567 876.427 905.434 875.68C907.394 874.933 908.561 872.833 908.934 869.38C909.121 867.793 909.214 866.16 909.214 864.48C909.214 862.8 909.214 861.167 909.214 859.58C909.214 847.913 909.167 836.293 909.074 824.72C909.074 813.147 909.074 801.573 909.074 790C909.074 787.293 908.421 785.52 907.114 784.68C905.901 783.747 904.361 783.28 902.494 783.28C900.627 783.187 898.761 783.14 896.894 783.14C896.147 783.14 895.634 782.953 895.354 782.58C895.167 782.113 895.074 781.553 895.074 780.9C895.074 779.873 895.214 779.127 895.494 778.66C895.867 778.193 896.661 777.96 897.874 777.96C899.554 777.96 901.187 778.007 902.774 778.1C904.454 778.193 906.181 778.24 907.954 778.24C911.034 778.24 914.067 778.24 917.054 778.24C920.134 778.147 923.261 778.1 926.434 778.1C927.554 778.1 928.627 778.053 929.654 777.96C930.774 777.867 931.941 777.82 933.154 777.82C933.621 777.82 933.947 778.053 934.134 778.52C934.414 778.893 934.554 779.313 934.554 779.78C934.554 781.46 933.994 782.3 932.874 782.3C931.754 782.3 930.681 782.3 929.654 782.3C926.947 782.3 924.987 782.767 923.774 783.7C922.561 784.633 921.954 786.547 921.954 789.44V824.86C927.554 824.58 933.294 824.44 939.174 824.44C942.254 824.44 945.334 824.533 948.414 824.72C951.587 824.813 954.667 825.187 957.654 825.84C961.667 826.68 965.354 828.22 968.714 830.46C972.074 832.607 974.781 835.36 976.834 838.72C978.887 841.987 979.914 845.813 979.914 850.2Z" fill="white"/>
</svg>
