<svg width="256" height="256" viewBox="0 0 256 256" fill="none" xmlns="http://www.w3.org/2000/svg">
<path d="M124.555 132.137C124.555 143.658 117.026 152.808 107.949 152.808C98.8713 152.808 91.342 143.658 91.342 132.137C91.342 120.616 98.8713 111.466 107.949 111.466C117.026 111.466 124.555 120.616 124.555 132.137Z" stroke="white"/>
<path d="M107.252 21.1711C107.252 32.6923 99.7227 41.8422 90.6454 41.8422C81.5681 41.8422 74.0388 32.6923 74.0388 21.1711C74.0388 9.64995 81.5681 0.5 90.6454 0.5C99.7227 0.5 107.252 9.64995 107.252 21.1711Z" stroke="white"/>
<path d="M73.2354 21.1711C73.2354 32.6923 65.7061 41.8422 56.6288 41.8422C47.5515 41.8422 40.0222 32.6923 40.0222 21.1711C40.0222 9.64995 47.5515 0.5 56.6288 0.5C65.7061 0.5 73.2354 9.64995 73.2354 21.1711Z" stroke="white"/>
<path d="M90.342 58.1597C90.342 69.6809 82.8127 78.8308 73.7354 78.8308C64.6581 78.8308 57.1288 69.6809 57.1288 58.1597C57.1288 46.6385 64.6581 37.4886 73.7354 37.4886C82.8127 37.4886 90.342 46.6385 90.342 58.1597Z" stroke="white"/>
<path d="M175.678 21.1711C175.678 32.6923 168.149 41.8422 159.072 41.8422C149.995 41.8422 142.465 32.6923 142.465 21.1711C142.465 9.64995 149.995 0.5 159.072 0.5C168.149 0.5 175.678 9.64995 175.678 21.1711Z" stroke="white"/>
<path d="M209.695 21.1711C209.695 32.6923 202.166 41.8422 193.088 41.8422C184.011 41.8422 176.482 32.6923 176.482 21.1711C176.482 9.64995 184.011 0.5 193.088 0.5C202.166 0.5 209.695 9.64995 209.695 21.1711Z" stroke="white"/>
<path d="M141.465 21.1711C141.465 32.6923 133.936 41.8422 124.859 41.8422C115.781 41.8422 108.252 32.6923 108.252 21.1711C108.252 9.64995 115.781 0.5 124.859 0.5C133.936 0.5 141.465 9.64995 141.465 21.1711Z" stroke="white"/>
<path d="M141.858 169.125C141.858 180.647 134.329 189.797 125.252 189.797C116.175 189.797 108.645 180.647 108.645 169.125C108.645 157.604 116.175 148.454 125.252 148.454C134.329 148.454 141.858 157.604 141.858 169.125Z" stroke="white"/>
<path d="M158.572 132.137C158.572 143.658 151.042 152.808 141.965 152.808C132.888 152.808 125.359 143.658 125.359 132.137C125.359 120.616 132.888 111.466 141.965 111.466C151.042 111.466 158.572 120.616 158.572 132.137Z" stroke="white"/>
<path d="M141.662 95.1483C141.662 106.669 134.132 115.819 125.055 115.819C115.978 115.819 108.449 106.669 108.449 95.1483C108.449 83.6271 115.978 74.4772 125.055 74.4772C134.132 74.4772 141.662 83.6271 141.662 95.1483Z" stroke="white"/>
<path d="M124.359 58.1597C124.359 69.6809 116.829 78.8308 107.752 78.8308C98.6747 78.8308 91.1454 69.6809 91.1454 58.1597C91.1454 46.6385 98.6747 37.4886 107.752 37.4886C116.829 37.4886 124.359 46.6385 124.359 58.1597Z" stroke="white"/>
<path d="M107.645 95.1483C107.645 106.669 100.116 115.819 91.0386 115.819C81.9613 115.819 74.432 106.669 74.432 95.1483C74.432 83.6271 81.9613 74.4772 91.0386 74.4772C100.116 74.4772 107.645 83.6271 107.645 95.1483Z" stroke="white"/>
<path d="M158.572 58.1597C158.572 69.6809 151.042 78.8308 141.965 78.8308C132.888 78.8308 125.359 69.6809 125.359 58.1597C125.359 46.6385 132.888 37.4886 141.965 37.4886C151.042 37.4886 158.572 46.6385 158.572 58.1597Z" stroke="white"/>
<path d="M192.785 58.1597C192.785 69.6809 185.256 78.8308 176.178 78.8308C167.101 78.8308 159.572 69.6809 159.572 58.1597C159.572 46.6385 167.101 37.4886 176.178 37.4886C185.256 37.4886 192.785 46.6385 192.785 58.1597Z" stroke="white"/>
<path d="M175.875 95.1483C175.875 106.669 168.346 115.819 159.268 115.819C150.191 115.819 142.662 106.669 142.662 95.1483C142.662 83.6271 150.191 74.4772 159.268 74.4772C168.346 74.4772 175.875 83.6271 175.875 95.1483Z" stroke="white"/>
<line x1="171.066" y1="131.38" x2="249.717" y2="131.38" stroke="white" stroke-width="2"/>
<line y1="131.38" x2="78.6511" y2="131.38" stroke="white" stroke-width="2"/>
<path d="M33.7535 220.01C33.7535 220.197 33.6719 220.313 33.5085 220.36C33.3452 220.407 33.1935 220.43 33.0535 220.43H27.8385C27.5585 220.43 27.3252 220.418 27.1385 220.395C26.9752 220.348 26.7885 220.22 26.5785 220.01C26.3685 219.8 26.1819 219.578 26.0185 219.345C25.8552 219.088 25.6802 218.843 25.4935 218.61C25.1202 218.097 24.7469 217.595 24.3735 217.105C24.0002 216.615 23.6152 216.125 23.2185 215.635L17.0235 207.41L15.1335 208.88C15.1335 210.187 15.1219 211.505 15.0985 212.835C15.0985 214.142 15.0985 215.448 15.0985 216.755C15.0985 217.338 15.2152 217.91 15.4485 218.47C15.6819 219.007 16.1602 219.275 16.8835 219.275C17.0702 219.275 17.2569 219.275 17.4435 219.275C17.6535 219.252 17.8519 219.24 18.0385 219.24C18.2252 219.24 18.3652 219.31 18.4585 219.45C18.5519 219.567 18.5985 219.718 18.5985 219.905C18.5985 220.208 18.5169 220.395 18.3535 220.465C18.2135 220.512 18.0152 220.535 17.7585 220.535C17.1052 220.535 16.4402 220.523 15.7635 220.5C15.1102 220.453 14.4452 220.43 13.7685 220.43C12.9519 220.43 12.1352 220.442 11.3185 220.465C10.5019 220.488 9.68519 220.5 8.86852 220.5C8.63519 220.5 8.48352 220.442 8.41352 220.325C8.36686 220.185 8.34352 220.022 8.34352 219.835C8.34352 219.555 8.48352 219.38 8.76352 219.31C9.06686 219.24 9.40519 219.205 9.77852 219.205C10.1752 219.182 10.4902 219.123 10.7235 219.03C11.2369 218.843 11.5635 218.505 11.7035 218.015C11.8435 217.525 11.9135 217.035 11.9135 216.545C11.9135 213.535 11.9019 210.537 11.8785 207.55C11.8785 204.54 11.8785 201.53 11.8785 198.52C11.8785 197.89 11.7619 197.33 11.5285 196.84C11.3185 196.327 10.8402 196.07 10.0935 196.07C9.93019 196.07 9.75519 196.082 9.56852 196.105C9.40519 196.105 9.23019 196.105 9.04352 196.105C8.60019 196.105 8.37852 195.883 8.37852 195.44C8.37852 195.137 8.43686 194.95 8.55352 194.88C8.69352 194.81 8.90352 194.775 9.18352 194.775C10.1635 194.775 11.1435 194.787 12.1235 194.81C13.1035 194.833 14.0835 194.845 15.0635 194.845C15.5302 194.845 15.9969 194.833 16.4635 194.81C16.9302 194.787 17.3969 194.775 17.8635 194.775C18.0502 194.775 18.2019 194.81 18.3185 194.88C18.4585 194.927 18.5285 195.055 18.5285 195.265C18.5285 195.662 18.4119 195.907 18.1785 196C17.9452 196.07 17.6535 196.105 17.3035 196.105C16.9769 196.082 16.6385 196.117 16.2885 196.21C15.9385 196.28 15.6469 196.502 15.4135 196.875C15.1802 197.225 15.0635 197.82 15.0635 198.66C15.0635 200.153 15.0752 201.647 15.0985 203.14C15.1219 204.633 15.1102 206.127 15.0635 207.62C17.0235 205.823 18.9602 204.003 20.8735 202.16C22.7869 200.317 24.6185 198.403 26.3685 196.42C26.5785 196.163 26.7885 195.918 26.9985 195.685C27.2319 195.428 27.4302 195.172 27.5935 194.915C27.7102 194.868 27.9435 194.833 28.2935 194.81C28.6435 194.787 29.0052 194.775 29.3785 194.775C29.7752 194.775 30.0435 194.775 30.1835 194.775C30.3235 194.775 30.5219 194.775 30.7785 194.775C31.0352 194.752 31.2569 194.775 31.4435 194.845C31.6535 194.892 31.7585 195.032 31.7585 195.265C31.7585 195.428 31.7235 195.545 31.6535 195.615C31.6069 195.662 31.5135 195.708 31.3735 195.755C31.0702 195.848 30.7669 195.918 30.4635 195.965C30.1602 196.012 29.8569 196.093 29.5535 196.21C29.2969 196.303 29.0519 196.443 28.8185 196.63C28.6085 196.817 28.4102 197.003 28.2235 197.19L19.4735 205.345C20.9435 207.118 22.3785 208.927 23.7785 210.77C25.2019 212.613 26.6719 214.398 28.1885 216.125C28.5152 216.498 28.8535 216.86 29.2035 217.21C29.5769 217.56 29.9502 217.898 30.3235 218.225C30.8135 218.645 31.2802 218.902 31.7235 218.995C32.1669 219.065 32.6685 219.193 33.2285 219.38C33.4152 219.45 33.5435 219.52 33.6135 219.59C33.7069 219.66 33.7535 219.8 33.7535 220.01ZM75.8235 195.44C75.8235 195.813 75.6952 196.012 75.4385 196.035C75.2052 196.058 74.9602 196.07 74.7035 196.07C74.0269 196.07 73.5252 196.163 73.1985 196.35C72.8952 196.513 72.5685 196.898 72.2185 197.505C71.8452 198.158 71.4952 198.835 71.1685 199.535C70.8652 200.235 70.5502 200.935 70.2235 201.635C69.5702 203.012 68.8935 204.4 68.1935 205.8C67.5169 207.177 66.8402 208.553 66.1635 209.93C65.6269 211.073 65.0785 212.217 64.5185 213.36C63.9819 214.503 63.3752 215.623 62.6985 216.72C61.9752 217.957 61.0769 218.983 60.0035 219.8C58.9302 220.617 57.6352 221.025 56.1185 221.025C55.5352 221.025 54.9635 220.932 54.4035 220.745C53.8435 220.582 53.3769 220.302 53.0035 219.905C52.6302 219.508 52.4435 218.96 52.4435 218.26C52.4435 217.443 52.6885 216.895 53.1785 216.615C53.6685 216.335 54.2752 216.195 54.9985 216.195C55.1385 217.012 55.4535 217.677 55.9435 218.19C56.4335 218.68 57.1102 218.925 57.9735 218.925C58.8835 218.925 59.5719 218.657 60.0385 218.12C60.5285 217.56 60.9602 216.918 61.3335 216.195C61.5902 215.658 61.8119 215.11 61.9985 214.55C62.1852 213.99 62.2785 213.418 62.2785 212.835C62.2785 212.672 62.2552 212.508 62.2085 212.345C62.1852 212.182 62.1502 212.018 62.1035 211.855C61.7535 210.805 61.3219 209.79 60.8085 208.81C60.2952 207.83 59.8169 206.838 59.3735 205.835C59.1635 205.345 58.8719 204.703 58.4985 203.91C58.1485 203.093 57.7635 202.242 57.3435 201.355C56.9235 200.468 56.5035 199.663 56.0835 198.94C55.6869 198.193 55.3485 197.645 55.0685 197.295C54.6485 196.828 54.2402 196.583 53.8435 196.56C53.4469 196.513 52.9685 196.49 52.4085 196.49C52.1985 196.49 52.0235 196.455 51.8835 196.385C51.7669 196.315 51.7085 196.152 51.7085 195.895C51.7085 195.638 51.8485 195.44 52.1285 195.3C52.1752 195.277 52.4435 195.242 52.9335 195.195C53.4469 195.125 54.0419 195.067 54.7185 195.02C55.3952 194.95 56.0019 194.903 56.5385 194.88C57.0985 194.833 57.4485 194.81 57.5885 194.81C57.8452 194.81 58.0085 194.927 58.0785 195.16C58.1952 195.253 58.2885 195.37 58.3585 195.51C58.4519 195.627 58.5219 195.743 58.5685 195.86C59.6885 198.193 60.7269 200.573 61.6835 203C62.6635 205.403 63.6552 207.783 64.6585 210.14C64.8219 209.813 65.0552 209.312 65.3585 208.635C65.6852 207.958 66.0469 207.177 66.4435 206.29C66.8635 205.38 67.2835 204.458 67.7035 203.525C68.1235 202.568 68.5085 201.658 68.8585 200.795C69.2085 199.932 69.4885 199.185 69.6985 198.555C69.9319 197.925 70.0485 197.505 70.0485 197.295C70.0485 197.178 70.0485 197.062 70.0485 196.945C70.0719 196.828 70.0835 196.712 70.0835 196.595C70.0835 196.408 70.0019 196.28 69.8385 196.21C69.7219 196.117 69.4885 196.07 69.1385 196.07C68.8119 196.047 68.4735 196.035 68.1235 196.035C67.7735 196.035 67.5169 196.035 67.3535 196.035C67.1435 196.035 66.9685 196 66.8285 195.93C66.6885 195.837 66.6185 195.673 66.6185 195.44C66.6185 195.183 66.7235 195.02 66.9335 194.95C67.1669 194.857 67.4119 194.81 67.6685 194.81C67.9485 194.81 68.1702 194.81 68.3335 194.81C68.8702 194.81 69.3952 194.822 69.9085 194.845C70.4452 194.868 70.9819 194.88 71.5185 194.88C72.1485 194.88 72.7785 194.868 73.4085 194.845C74.0385 194.798 74.6802 194.775 75.3335 194.775C75.5435 194.775 75.6719 194.845 75.7185 194.985C75.7885 195.102 75.8235 195.253 75.8235 195.44ZM114.254 213.255C114.254 211.318 113.787 209.872 112.854 208.915C111.92 207.935 110.485 207.445 108.549 207.445C108.245 207.445 107.93 207.445 107.604 207.445C107.3 207.422 106.985 207.41 106.659 207.41C105.865 207.41 105.06 207.433 104.244 207.48C103.427 207.503 102.61 207.538 101.794 207.585V218.19C101.794 218.61 101.945 218.925 102.249 219.135C102.552 219.322 102.902 219.438 103.299 219.485C103.695 219.532 104.045 219.555 104.349 219.555C104.815 219.555 105.282 219.555 105.749 219.555C106.215 219.532 106.682 219.508 107.149 219.485C108.455 219.415 109.645 219.17 110.719 218.75C111.792 218.307 112.644 217.642 113.274 216.755C113.927 215.845 114.254 214.678 114.254 213.255ZM117.929 212.73C117.929 214.433 117.509 215.892 116.669 217.105C115.829 218.295 114.615 219.193 113.029 219.8C112.049 220.173 110.964 220.395 109.774 220.465C108.584 220.512 107.475 220.535 106.449 220.535C105.329 220.535 104.209 220.523 103.089 220.5C101.969 220.453 100.849 220.43 99.7285 220.43C99.0285 220.43 98.3169 220.453 97.5935 220.5C96.8935 220.523 96.1935 220.535 95.4935 220.535C95.1435 220.535 94.9685 220.348 94.9685 219.975C94.9685 219.882 94.9919 219.777 95.0385 219.66C95.0852 219.52 95.1552 219.45 95.2485 219.45C95.5752 219.45 95.9019 219.45 96.2285 219.45C96.5552 219.427 96.8702 219.38 97.1735 219.31C97.7102 219.193 98.0602 219.007 98.2235 218.75C98.3869 218.47 98.4919 218.073 98.5385 217.56C98.5852 217.07 98.6085 216.58 98.6085 216.09C98.6085 215.6 98.6085 215.122 98.6085 214.655C98.6085 211.832 98.5969 209.02 98.5735 206.22C98.5735 203.397 98.5735 200.585 98.5735 197.785C98.5735 197.412 98.5152 197.085 98.3985 196.805C98.2819 196.525 98.0369 196.315 97.6635 196.175C97.4302 196.058 97.1035 196 96.6835 196C96.2869 196 95.9602 196 95.7035 196C95.3069 196 95.1085 195.813 95.1085 195.44C95.1085 195.347 95.1319 195.218 95.1785 195.055C95.2485 194.892 95.3419 194.81 95.4585 194.81C95.7619 194.81 96.0535 194.822 96.3335 194.845C96.6369 194.868 96.9402 194.88 97.2435 194.88C98.6202 194.88 99.9969 194.892 101.374 194.915C102.75 194.938 104.115 194.95 105.469 194.95C106.402 194.95 107.335 194.938 108.269 194.915C109.202 194.892 110.135 194.868 111.069 194.845C111.652 194.822 112.224 194.798 112.784 194.775C113.344 194.728 113.915 194.705 114.499 194.705C114.615 194.705 114.685 194.752 114.709 194.845C114.755 194.938 114.825 195.23 114.919 195.72C115.012 196.21 115.105 196.758 115.199 197.365C115.315 197.972 115.409 198.52 115.479 199.01C115.572 199.5 115.619 199.803 115.619 199.92C115.619 200.107 115.549 200.27 115.409 200.41C115.269 200.527 115.105 200.585 114.919 200.585C114.709 200.585 114.569 200.468 114.499 200.235C114.195 199.348 113.869 198.625 113.519 198.065C113.169 197.505 112.515 197.038 111.559 196.665C111.069 196.478 110.439 196.338 109.669 196.245C108.922 196.152 108.164 196.093 107.394 196.07C106.624 196.047 105.959 196.035 105.399 196.035C105.235 196.035 104.909 196.035 104.419 196.035C103.952 196.035 103.485 196.047 103.019 196.07C102.575 196.07 102.307 196.093 102.214 196.14C102.097 196.187 101.992 196.245 101.899 196.315C101.829 196.385 101.794 196.502 101.794 196.665V206.43C102.82 206.383 103.859 206.348 104.909 206.325C105.959 206.302 106.997 206.29 108.024 206.29C108.77 206.29 109.505 206.302 110.229 206.325C110.952 206.348 111.664 206.442 112.364 206.605C113.39 206.838 114.324 207.235 115.164 207.795C116.004 208.332 116.669 209.02 117.159 209.86C117.672 210.677 117.929 211.633 117.929 212.73ZM152.474 210.245C151.68 208.098 150.899 205.952 150.129 203.805C149.359 201.635 148.565 199.477 147.749 197.33C146.955 199.5 146.15 201.67 145.334 203.84C144.54 205.987 143.7 208.122 142.814 210.245H152.474ZM163.114 219.835C163.114 219.998 163.079 220.15 163.009 220.29C162.939 220.43 162.81 220.5 162.624 220.5C161.9 220.5 161.189 220.488 160.489 220.465C159.789 220.442 159.089 220.43 158.389 220.43C157.409 220.43 156.44 220.442 155.484 220.465C154.527 220.488 153.57 220.5 152.614 220.5C152.497 220.5 152.415 220.43 152.369 220.29C152.322 220.127 152.299 220.01 152.299 219.94C152.299 219.613 152.45 219.438 152.754 219.415C153.08 219.368 153.349 219.345 153.559 219.345C153.932 219.345 154.329 219.31 154.749 219.24C155.169 219.147 155.379 218.843 155.379 218.33C155.379 218.12 155.274 217.7 155.064 217.07C154.854 216.44 154.597 215.74 154.294 214.97C153.99 214.2 153.699 213.488 153.419 212.835C153.162 212.158 152.975 211.668 152.859 211.365H142.534C142.464 211.552 142.324 211.913 142.114 212.45C141.927 212.963 141.705 213.558 141.449 214.235C141.215 214.888 140.982 215.542 140.749 216.195C140.515 216.825 140.317 217.373 140.154 217.84C140.014 218.307 139.944 218.587 139.944 218.68C139.944 218.913 140.072 219.088 140.329 219.205C140.585 219.322 140.9 219.392 141.274 219.415C141.647 219.438 141.997 219.45 142.324 219.45C142.674 219.427 142.93 219.415 143.094 219.415C143.28 219.415 143.385 219.485 143.409 219.625C143.455 219.742 143.479 219.87 143.479 220.01C143.479 220.337 143.315 220.5 142.989 220.5H135.639C135.475 220.5 135.359 220.442 135.289 220.325C135.242 220.208 135.219 220.092 135.219 219.975C135.219 219.602 135.405 219.415 135.779 219.415C136.549 219.415 137.167 219.252 137.634 218.925C138.1 218.575 138.497 218.062 138.824 217.385C138.94 217.128 139.057 216.86 139.174 216.58C139.29 216.3 139.407 216.02 139.524 215.74C140.877 212.287 142.195 208.833 143.479 205.38C144.785 201.903 146.069 198.427 147.329 194.95C147.702 194.833 148.11 194.728 148.554 194.635C148.997 194.542 149.417 194.495 149.814 194.495C149.907 194.495 149.954 194.53 149.954 194.6L158.039 214.935C158.225 215.378 158.412 215.845 158.599 216.335C158.785 216.802 158.984 217.268 159.194 217.735C159.497 218.342 159.87 218.727 160.314 218.89C160.757 219.053 161.189 219.135 161.609 219.135C162.029 219.135 162.379 219.158 162.659 219.205C162.962 219.252 163.114 219.462 163.114 219.835ZM205.779 219.87C205.779 220.197 205.697 220.395 205.534 220.465C205.394 220.512 205.184 220.535 204.904 220.535C204.25 220.535 203.597 220.523 202.944 220.5C202.314 220.453 201.672 220.43 201.019 220.43C200.295 220.43 199.572 220.453 198.849 220.5C198.149 220.547 197.437 220.57 196.714 220.57C196.364 220.57 196.189 220.395 196.189 220.045C196.189 219.648 196.27 219.438 196.434 219.415C196.597 219.392 196.83 219.38 197.134 219.38C198.067 219.38 198.65 219.147 198.884 218.68C199.14 218.213 199.269 217.572 199.269 216.755C199.269 215.308 199.257 213.862 199.234 212.415C199.234 210.968 199.234 209.533 199.234 208.11H184.674V216.79C184.674 217.397 184.779 217.968 184.989 218.505C185.199 219.018 185.677 219.275 186.424 219.275C186.61 219.275 186.797 219.275 186.984 219.275C187.194 219.252 187.404 219.24 187.614 219.24C187.8 219.24 187.917 219.31 187.964 219.45C188.01 219.567 188.034 219.707 188.034 219.87C188.034 220.197 187.952 220.395 187.789 220.465C187.649 220.512 187.439 220.535 187.159 220.535C186.505 220.535 185.852 220.523 185.199 220.5C184.569 220.453 183.927 220.43 183.274 220.43C182.527 220.43 181.78 220.453 181.034 220.5C180.287 220.547 179.54 220.57 178.794 220.57C178.444 220.57 178.269 220.395 178.269 220.045C178.269 219.602 178.455 219.38 178.829 219.38C179.202 219.357 179.529 219.345 179.809 219.345C180.299 219.345 180.66 219.205 180.894 218.925C181.15 218.622 181.314 218.272 181.384 217.875C181.477 217.455 181.524 217.058 181.524 216.685C181.524 213.675 181.512 210.677 181.489 207.69C181.489 204.68 181.489 201.67 181.489 198.66C181.489 197.983 181.349 197.388 181.069 196.875C180.812 196.338 180.299 196.07 179.529 196.07C179.342 196.07 179.155 196.082 178.969 196.105C178.805 196.128 178.63 196.14 178.444 196.14C178.117 196.14 177.954 195.953 177.954 195.58C177.954 195.277 178.012 195.078 178.129 194.985C178.245 194.892 178.455 194.845 178.759 194.845C179.435 194.845 180.112 194.868 180.789 194.915C181.489 194.938 182.189 194.95 182.889 194.95C183.542 194.95 184.184 194.938 184.814 194.915C185.467 194.892 186.12 194.857 186.774 194.81C186.867 194.787 186.995 194.775 187.159 194.775C187.532 194.775 187.719 194.973 187.719 195.37C187.719 195.767 187.625 195.965 187.439 195.965C187.252 195.965 187.03 195.965 186.774 195.965C185.817 195.965 185.21 196.21 184.954 196.7C184.72 197.19 184.604 197.843 184.604 198.66C184.604 199.943 184.604 201.25 184.604 202.58C184.627 203.887 184.65 205.193 184.674 206.5H199.234C199.234 205.193 199.234 203.887 199.234 202.58C199.257 201.273 199.269 199.967 199.269 198.66C199.269 198.053 199.152 197.47 198.919 196.91C198.709 196.35 198.23 196.07 197.484 196.07C197.274 196.07 197.075 196.082 196.889 196.105C196.702 196.128 196.515 196.14 196.329 196.14C196.002 196.14 195.839 195.953 195.839 195.58C195.839 195.253 195.897 195.055 196.014 194.985C196.13 194.892 196.34 194.845 196.644 194.845C197.32 194.845 197.985 194.868 198.639 194.915C199.292 194.938 199.957 194.95 200.634 194.95C201.287 194.95 201.94 194.938 202.594 194.915C203.27 194.892 203.935 194.857 204.589 194.81C204.659 194.787 204.729 194.775 204.799 194.775C204.869 194.775 204.939 194.775 205.009 194.775C205.382 194.775 205.569 194.973 205.569 195.37C205.569 195.743 205.464 195.942 205.254 195.965C205.067 195.965 204.845 195.965 204.589 195.965C203.609 195.965 202.99 196.222 202.734 196.735C202.5 197.225 202.384 197.89 202.384 198.73C202.384 201.74 202.384 204.75 202.384 207.76C202.407 210.77 202.419 213.78 202.419 216.79C202.419 217.397 202.524 217.968 202.734 218.505C202.944 219.018 203.422 219.275 204.169 219.275C204.355 219.275 204.542 219.275 204.729 219.275C204.939 219.252 205.149 219.24 205.359 219.24C205.545 219.24 205.662 219.31 205.709 219.45C205.755 219.567 205.779 219.707 205.779 219.87ZM241.304 213.325C241.304 211.388 240.837 209.942 239.904 208.985C238.97 208.028 237.535 207.55 235.599 207.55C235.272 207.55 234.957 207.55 234.654 207.55C234.35 207.527 234.035 207.515 233.709 207.515C233.172 207.515 232.635 207.538 232.099 207.585C231.562 207.632 231.025 207.667 230.489 207.69V218.225C230.489 218.645 230.64 218.948 230.944 219.135C231.247 219.298 231.597 219.403 231.994 219.45C232.39 219.497 232.74 219.52 233.044 219.52C234.07 219.52 235.074 219.427 236.054 219.24C237.034 219.03 237.92 218.703 238.714 218.26C239.507 217.793 240.137 217.163 240.604 216.37C241.07 215.553 241.304 214.538 241.304 213.325ZM244.979 212.8C244.979 214.503 244.547 215.938 243.684 217.105C242.844 218.248 241.63 219.123 240.044 219.73C239.04 220.103 237.967 220.325 236.824 220.395C235.704 220.442 234.619 220.465 233.569 220.465C232.705 220.465 231.842 220.453 230.979 220.43C230.139 220.407 229.287 220.395 228.424 220.395C227.7 220.395 226.989 220.418 226.289 220.465C225.589 220.488 224.889 220.5 224.189 220.5C223.839 220.5 223.664 220.325 223.664 219.975C223.664 219.602 223.745 219.427 223.909 219.45C224.095 219.45 224.305 219.45 224.539 219.45C225.285 219.45 225.892 219.357 226.359 219.17C226.849 218.983 227.14 218.458 227.234 217.595C227.28 217.198 227.304 216.79 227.304 216.37C227.304 215.95 227.304 215.542 227.304 215.145C227.304 212.228 227.292 209.323 227.269 206.43C227.269 203.537 227.269 200.643 227.269 197.75C227.269 197.073 227.105 196.63 226.779 196.42C226.475 196.187 226.09 196.07 225.624 196.07C225.157 196.047 224.69 196.035 224.224 196.035C224.037 196.035 223.909 195.988 223.839 195.895C223.792 195.778 223.769 195.638 223.769 195.475C223.769 195.218 223.804 195.032 223.874 194.915C223.967 194.798 224.165 194.74 224.469 194.74C224.889 194.74 225.297 194.752 225.694 194.775C226.114 194.798 226.545 194.81 226.989 194.81C227.759 194.81 228.517 194.81 229.264 194.81C230.034 194.787 230.815 194.775 231.609 194.775C231.889 194.775 232.157 194.763 232.414 194.74C232.694 194.717 232.985 194.705 233.289 194.705C233.405 194.705 233.487 194.763 233.534 194.88C233.604 194.973 233.639 195.078 233.639 195.195C233.639 195.615 233.499 195.825 233.219 195.825C232.939 195.825 232.67 195.825 232.414 195.825C231.737 195.825 231.247 195.942 230.944 196.175C230.64 196.408 230.489 196.887 230.489 197.61V206.465C231.889 206.395 233.324 206.36 234.794 206.36C235.564 206.36 236.334 206.383 237.104 206.43C237.897 206.453 238.667 206.547 239.414 206.71C240.417 206.92 241.339 207.305 242.179 207.865C243.019 208.402 243.695 209.09 244.209 209.93C244.722 210.747 244.979 211.703 244.979 212.8Z" fill="white"/>
</svg>
