<svg width="512" height="512" viewBox="0 0 512 512" fill="none" xmlns="http://www.w3.org/2000/svg">
<path d="M249.61 264.274C249.61 287.487 234.422 306.116 215.897 306.116C197.372 306.116 182.184 287.487 182.184 264.274C182.184 241.06 197.372 222.432 215.897 222.432C234.422 222.432 249.61 241.06 249.61 264.274Z" stroke="white"/>
<path d="M215.004 42.3422C215.004 65.5558 199.816 84.1844 181.291 84.1844C162.766 84.1844 147.578 65.5558 147.578 42.3422C147.578 19.1286 162.766 0.5 181.291 0.5C199.816 0.5 215.004 19.1286 215.004 42.3422Z" stroke="white"/>
<path d="M146.971 42.3422C146.971 65.5558 131.783 84.1844 113.258 84.1844C94.7325 84.1844 79.5443 65.5558 79.5443 42.3422C79.5443 19.1286 94.7325 0.5 113.258 0.5C131.783 0.5 146.971 19.1286 146.971 42.3422Z" stroke="white"/>
<path d="M181.184 116.319C181.184 139.533 165.996 158.162 147.471 158.162C128.946 158.162 113.758 139.533 113.758 116.319C113.758 93.1058 128.946 74.4772 147.471 74.4772C165.996 74.4772 181.184 93.1058 181.184 116.319Z" stroke="white"/>
<path d="M351.857 42.3422C351.857 65.5558 336.669 84.1844 318.144 84.1844C299.619 84.1844 284.43 65.5558 284.43 42.3422C284.43 19.1286 299.619 0.5 318.144 0.5C336.669 0.5 351.857 19.1286 351.857 42.3422Z" stroke="white"/>
<path d="M419.89 42.3422C419.89 65.5558 404.702 84.1844 386.177 84.1844C367.652 84.1844 352.464 65.5558 352.464 42.3422C352.464 19.1286 367.652 0.5 386.177 0.5C404.702 0.5 419.89 19.1286 419.89 42.3422Z" stroke="white"/>
<path d="M283.43 42.3422C283.43 65.5558 268.242 84.1844 249.717 84.1844C231.192 84.1844 216.004 65.5558 216.004 42.3422C216.004 19.1286 231.192 0.5 249.717 0.5C268.242 0.5 283.43 19.1286 283.43 42.3422Z" stroke="white"/>
<path d="M284.217 338.251C284.217 361.465 269.029 380.093 250.504 380.093C231.979 380.093 216.79 361.465 216.79 338.251C216.79 315.037 231.979 296.409 250.504 296.409C269.029 296.409 284.217 315.037 284.217 338.251Z" stroke="white"/>
<path d="M317.644 264.274C317.644 287.487 302.455 306.116 283.93 306.116C265.405 306.116 250.217 287.487 250.217 264.274C250.217 241.06 265.405 222.432 283.93 222.432C302.455 222.432 317.644 241.06 317.644 264.274Z" stroke="white"/>
<path d="M283.824 190.297C283.824 213.51 268.635 232.139 250.11 232.139C231.585 232.139 216.397 213.51 216.397 190.297C216.397 167.083 231.585 148.454 250.11 148.454C268.635 148.454 283.824 167.083 283.824 190.297Z" stroke="white"/>
<path d="M249.217 116.319C249.217 139.533 234.029 158.162 215.504 158.162C196.979 158.162 181.791 139.533 181.791 116.319C181.791 93.1058 196.979 74.4772 215.504 74.4772C234.029 74.4772 249.217 93.1058 249.217 116.319Z" stroke="white"/>
<path d="M215.79 190.297C215.79 213.51 200.602 232.139 182.077 232.139C163.552 232.139 148.364 213.51 148.364 190.297C148.364 167.083 163.552 148.454 182.077 148.454C200.602 148.454 215.79 167.083 215.79 190.297Z" stroke="white"/>
<path d="M317.644 116.319C317.644 139.533 302.455 158.162 283.93 158.162C265.405 158.162 250.217 139.533 250.217 116.319C250.217 93.1058 265.405 74.4772 283.93 74.4772C302.455 74.4772 317.644 93.1058 317.644 116.319Z" stroke="white"/>
<path d="M386.07 116.319C386.07 139.533 370.882 158.162 352.357 158.162C333.832 158.162 318.644 139.533 318.644 116.319C318.644 93.1058 333.832 74.4772 352.357 74.4772C370.882 74.4772 386.07 93.1058 386.07 116.319Z" stroke="white"/>
<path d="M352.25 190.297C352.25 213.51 337.062 232.139 318.537 232.139C300.012 232.139 284.824 213.51 284.824 190.297C284.824 167.083 300.012 148.454 318.537 148.454C337.062 148.454 352.25 167.083 352.25 190.297Z" stroke="white"/>
<line x1="342.132" y1="263.76" x2="499.434" y2="263.76" stroke="white" stroke-width="2"/>
<line y1="263.76" x2="157.302" y2="263.76" stroke="white" stroke-width="2"/>
<path d="M67.507 439.02C67.507 439.393 67.3437 439.627 67.017 439.72C66.6904 439.813 66.387 439.86 66.107 439.86H55.677C55.117 439.86 54.6504 439.837 54.277 439.79C53.9504 439.697 53.577 439.44 53.157 439.02C52.737 438.6 52.3637 438.157 52.037 437.69C51.7104 437.177 51.3604 436.687 50.987 436.22C50.2403 435.193 49.4937 434.19 48.747 433.21C48.0004 432.23 47.2304 431.25 46.437 430.27L34.047 413.82L30.267 416.76C30.267 419.373 30.2437 422.01 30.197 424.67C30.197 427.283 30.197 429.897 30.197 432.51C30.197 433.677 30.4303 434.82 30.897 435.94C31.3637 437.013 32.3204 437.55 33.767 437.55C34.1404 437.55 34.5137 437.55 34.887 437.55C35.307 437.503 35.7037 437.48 36.077 437.48C36.4504 437.48 36.7304 437.62 36.917 437.9C37.1037 438.133 37.197 438.437 37.197 438.81C37.197 439.417 37.0337 439.79 36.707 439.93C36.427 440.023 36.0304 440.07 35.517 440.07C34.2104 440.07 32.8803 440.047 31.527 440C30.2203 439.907 28.8903 439.86 27.537 439.86C25.9037 439.86 24.2703 439.883 22.637 439.93C21.0037 439.977 19.3703 440 17.737 440C17.2703 440 16.967 439.883 16.827 439.65C16.7337 439.37 16.687 439.043 16.687 438.67C16.687 438.11 16.967 437.76 17.527 437.62C18.1337 437.48 18.8103 437.41 19.557 437.41C20.3503 437.363 20.9803 437.247 21.447 437.06C22.4737 436.687 23.127 436.01 23.407 435.03C23.687 434.05 23.827 433.07 23.827 432.09C23.827 426.07 23.8037 420.073 23.757 414.1C23.757 408.08 23.757 402.06 23.757 396.04C23.757 394.78 23.5237 393.66 23.057 392.68C22.637 391.653 21.6803 391.14 20.187 391.14C19.8603 391.14 19.5103 391.163 19.137 391.21C18.8103 391.21 18.4603 391.21 18.087 391.21C17.2003 391.21 16.757 390.767 16.757 389.88C16.757 389.273 16.8737 388.9 17.107 388.76C17.387 388.62 17.807 388.55 18.367 388.55C20.327 388.55 22.287 388.573 24.247 388.62C26.207 388.667 28.167 388.69 30.127 388.69C31.0603 388.69 31.9937 388.667 32.927 388.62C33.8604 388.573 34.7937 388.55 35.727 388.55C36.1004 388.55 36.4037 388.62 36.637 388.76C36.917 388.853 37.057 389.11 37.057 389.53C37.057 390.323 36.8237 390.813 36.357 391C35.8904 391.14 35.307 391.21 34.607 391.21C33.9537 391.163 33.277 391.233 32.577 391.42C31.877 391.56 31.2937 392.003 30.827 392.75C30.3604 393.45 30.127 394.64 30.127 396.32C30.127 399.307 30.1504 402.293 30.197 405.28C30.2437 408.267 30.2204 411.253 30.127 414.24C34.047 410.647 37.9204 407.007 41.747 403.32C45.5737 399.633 49.237 395.807 52.737 391.84C53.157 391.327 53.577 390.837 53.997 390.37C54.4637 389.857 54.8603 389.343 55.187 388.83C55.4204 388.737 55.887 388.667 56.587 388.62C57.287 388.573 58.0104 388.55 58.757 388.55C59.5504 388.55 60.087 388.55 60.367 388.55C60.647 388.55 61.0437 388.55 61.557 388.55C62.0704 388.503 62.5137 388.55 62.887 388.69C63.307 388.783 63.517 389.063 63.517 389.53C63.517 389.857 63.447 390.09 63.307 390.23C63.2137 390.323 63.027 390.417 62.747 390.51C62.1404 390.697 61.5337 390.837 60.927 390.93C60.3204 391.023 59.7137 391.187 59.107 391.42C58.5937 391.607 58.1037 391.887 57.637 392.26C57.217 392.633 56.8204 393.007 56.447 393.38L38.947 409.69C41.887 413.237 44.757 416.853 47.557 420.54C50.4037 424.227 53.3437 427.797 56.377 431.25C57.0304 431.997 57.707 432.72 58.407 433.42C59.1537 434.12 59.9004 434.797 60.647 435.45C61.627 436.29 62.5604 436.803 63.447 436.99C64.3337 437.13 65.337 437.387 66.457 437.76C66.8304 437.9 67.087 438.04 67.227 438.18C67.4137 438.32 67.507 438.6 67.507 439.02ZM151.647 389.88C151.647 390.627 151.39 391.023 150.877 391.07C150.41 391.117 149.92 391.14 149.407 391.14C148.054 391.14 147.05 391.327 146.397 391.7C145.79 392.027 145.137 392.797 144.437 394.01C143.69 395.317 142.99 396.67 142.337 398.07C141.73 399.47 141.1 400.87 140.447 402.27C139.14 405.023 137.787 407.8 136.387 410.6C135.034 413.353 133.68 416.107 132.327 418.86C131.254 421.147 130.157 423.433 129.037 425.72C127.964 428.007 126.75 430.247 125.397 432.44C123.95 434.913 122.154 436.967 120.007 438.6C117.86 440.233 115.27 441.05 112.237 441.05C111.07 441.05 109.927 440.863 108.807 440.49C107.687 440.163 106.754 439.603 106.007 438.81C105.26 438.017 104.887 436.92 104.887 435.52C104.887 433.887 105.377 432.79 106.357 432.23C107.337 431.67 108.55 431.39 109.997 431.39C110.277 433.023 110.907 434.353 111.887 435.38C112.867 436.36 114.22 436.85 115.947 436.85C117.767 436.85 119.144 436.313 120.077 435.24C121.057 434.12 121.92 432.837 122.667 431.39C123.18 430.317 123.624 429.22 123.997 428.1C124.37 426.98 124.557 425.837 124.557 424.67C124.557 424.343 124.51 424.017 124.417 423.69C124.37 423.363 124.3 423.037 124.207 422.71C123.507 420.61 122.644 418.58 121.617 416.62C120.59 414.66 119.634 412.677 118.747 410.67C118.327 409.69 117.744 408.407 116.997 406.82C116.297 405.187 115.527 403.483 114.687 401.71C113.847 399.937 113.007 398.327 112.167 396.88C111.374 395.387 110.697 394.29 110.137 393.59C109.297 392.657 108.48 392.167 107.687 392.12C106.894 392.027 105.937 391.98 104.817 391.98C104.397 391.98 104.047 391.91 103.767 391.77C103.534 391.63 103.417 391.303 103.417 390.79C103.417 390.277 103.697 389.88 104.257 389.6C104.35 389.553 104.887 389.483 105.867 389.39C106.894 389.25 108.084 389.133 109.437 389.04C110.79 388.9 112.004 388.807 113.077 388.76C114.197 388.667 114.897 388.62 115.177 388.62C115.69 388.62 116.017 388.853 116.157 389.32C116.39 389.507 116.577 389.74 116.717 390.02C116.904 390.253 117.044 390.487 117.137 390.72C119.377 395.387 121.454 400.147 123.367 405C125.327 409.807 127.31 414.567 129.317 419.28C129.644 418.627 130.11 417.623 130.717 416.27C131.37 414.917 132.094 413.353 132.887 411.58C133.727 409.76 134.567 407.917 135.407 406.05C136.247 404.137 137.017 402.317 137.717 400.59C138.417 398.863 138.977 397.37 139.397 396.11C139.864 394.85 140.097 394.01 140.097 393.59C140.097 393.357 140.097 393.123 140.097 392.89C140.144 392.657 140.167 392.423 140.167 392.19C140.167 391.817 140.004 391.56 139.677 391.42C139.444 391.233 138.977 391.14 138.277 391.14C137.624 391.093 136.947 391.07 136.247 391.07C135.547 391.07 135.034 391.07 134.707 391.07C134.287 391.07 133.937 391 133.657 390.86C133.377 390.673 133.237 390.347 133.237 389.88C133.237 389.367 133.447 389.04 133.867 388.9C134.334 388.713 134.824 388.62 135.337 388.62C135.897 388.62 136.34 388.62 136.667 388.62C137.74 388.62 138.79 388.643 139.817 388.69C140.89 388.737 141.964 388.76 143.037 388.76C144.297 388.76 145.557 388.737 146.817 388.69C148.077 388.597 149.36 388.55 150.667 388.55C151.087 388.55 151.344 388.69 151.437 388.97C151.577 389.203 151.647 389.507 151.647 389.88ZM228.507 425.51C228.507 421.637 227.574 418.743 225.707 416.83C223.84 414.87 220.97 413.89 217.097 413.89C216.49 413.89 215.86 413.89 215.207 413.89C214.6 413.843 213.97 413.82 213.317 413.82C211.73 413.82 210.12 413.867 208.487 413.96C206.854 414.007 205.22 414.077 203.587 414.17V435.38C203.587 436.22 203.89 436.85 204.497 437.27C205.104 437.643 205.804 437.877 206.597 437.97C207.39 438.063 208.09 438.11 208.697 438.11C209.63 438.11 210.564 438.11 211.497 438.11C212.43 438.063 213.364 438.017 214.297 437.97C216.91 437.83 219.29 437.34 221.437 436.5C223.584 435.613 225.287 434.283 226.547 432.51C227.854 430.69 228.507 428.357 228.507 425.51ZM235.857 424.46C235.857 427.867 235.017 430.783 233.337 433.21C231.657 435.59 229.23 437.387 226.057 438.6C224.097 439.347 221.927 439.79 219.547 439.93C217.167 440.023 214.95 440.07 212.897 440.07C210.657 440.07 208.417 440.047 206.177 440C203.937 439.907 201.697 439.86 199.457 439.86C198.057 439.86 196.634 439.907 195.187 440C193.787 440.047 192.387 440.07 190.987 440.07C190.287 440.07 189.937 439.697 189.937 438.95C189.937 438.763 189.984 438.553 190.077 438.32C190.17 438.04 190.31 437.9 190.497 437.9C191.15 437.9 191.804 437.9 192.457 437.9C193.11 437.853 193.74 437.76 194.347 437.62C195.42 437.387 196.12 437.013 196.447 436.5C196.774 435.94 196.984 435.147 197.077 434.12C197.17 433.14 197.217 432.16 197.217 431.18C197.217 430.2 197.217 429.243 197.217 428.31C197.217 422.663 197.194 417.04 197.147 411.44C197.147 405.793 197.147 400.17 197.147 394.57C197.147 393.823 197.03 393.17 196.797 392.61C196.564 392.05 196.074 391.63 195.327 391.35C194.86 391.117 194.207 391 193.367 391C192.574 391 191.92 391 191.407 391C190.614 391 190.217 390.627 190.217 389.88C190.217 389.693 190.264 389.437 190.357 389.11C190.497 388.783 190.684 388.62 190.917 388.62C191.524 388.62 192.107 388.643 192.667 388.69C193.274 388.737 193.88 388.76 194.487 388.76C197.24 388.76 199.994 388.783 202.747 388.83C205.5 388.877 208.23 388.9 210.937 388.9C212.804 388.9 214.67 388.877 216.537 388.83C218.404 388.783 220.27 388.737 222.137 388.69C223.304 388.643 224.447 388.597 225.567 388.55C226.687 388.457 227.83 388.41 228.997 388.41C229.23 388.41 229.37 388.503 229.417 388.69C229.51 388.877 229.65 389.46 229.837 390.44C230.024 391.42 230.21 392.517 230.397 393.73C230.63 394.943 230.817 396.04 230.957 397.02C231.144 398 231.237 398.607 231.237 398.84C231.237 399.213 231.097 399.54 230.817 399.82C230.537 400.053 230.21 400.17 229.837 400.17C229.417 400.17 229.137 399.937 228.997 399.47C228.39 397.697 227.737 396.25 227.037 395.13C226.337 394.01 225.03 393.077 223.117 392.33C222.137 391.957 220.877 391.677 219.337 391.49C217.844 391.303 216.327 391.187 214.787 391.14C213.247 391.093 211.917 391.07 210.797 391.07C210.47 391.07 209.817 391.07 208.837 391.07C207.904 391.07 206.97 391.093 206.037 391.14C205.15 391.14 204.614 391.187 204.427 391.28C204.194 391.373 203.984 391.49 203.797 391.63C203.657 391.77 203.587 392.003 203.587 392.33V411.86C205.64 411.767 207.717 411.697 209.817 411.65C211.917 411.603 213.994 411.58 216.047 411.58C217.54 411.58 219.01 411.603 220.457 411.65C221.904 411.697 223.327 411.883 224.727 412.21C226.78 412.677 228.647 413.47 230.327 414.59C232.007 415.663 233.337 417.04 234.317 418.72C235.344 420.353 235.857 422.267 235.857 424.46ZM304.947 419.49C303.36 415.197 301.797 410.903 300.257 406.61C298.717 402.27 297.13 397.953 295.497 393.66C293.91 398 292.3 402.34 290.667 406.68C289.08 410.973 287.4 415.243 285.627 419.49H304.947ZM326.227 438.67C326.227 438.997 326.157 439.3 326.017 439.58C325.877 439.86 325.62 440 325.247 440C323.8 440 322.377 439.977 320.977 439.93C319.577 439.883 318.177 439.86 316.777 439.86C314.817 439.86 312.88 439.883 310.967 439.93C309.054 439.977 307.14 440 305.227 440C304.994 440 304.83 439.86 304.737 439.58C304.644 439.253 304.597 439.02 304.597 438.88C304.597 438.227 304.9 437.877 305.507 437.83C306.16 437.737 306.697 437.69 307.117 437.69C307.864 437.69 308.657 437.62 309.497 437.48C310.337 437.293 310.757 436.687 310.757 435.66C310.757 435.24 310.547 434.4 310.127 433.14C309.707 431.88 309.194 430.48 308.587 428.94C307.98 427.4 307.397 425.977 306.837 424.67C306.324 423.317 305.95 422.337 305.717 421.73H285.067C284.927 422.103 284.647 422.827 284.227 423.9C283.854 424.927 283.41 426.117 282.897 427.47C282.43 428.777 281.964 430.083 281.497 431.39C281.03 432.65 280.634 433.747 280.307 434.68C280.027 435.613 279.887 436.173 279.887 436.36C279.887 436.827 280.144 437.177 280.657 437.41C281.17 437.643 281.8 437.783 282.547 437.83C283.294 437.877 283.994 437.9 284.647 437.9C285.347 437.853 285.86 437.83 286.187 437.83C286.56 437.83 286.77 437.97 286.817 438.25C286.91 438.483 286.957 438.74 286.957 439.02C286.957 439.673 286.63 440 285.977 440H271.277C270.95 440 270.717 439.883 270.577 439.65C270.484 439.417 270.437 439.183 270.437 438.95C270.437 438.203 270.81 437.83 271.557 437.83C273.097 437.83 274.334 437.503 275.267 436.85C276.2 436.15 276.994 435.123 277.647 433.77C277.88 433.257 278.114 432.72 278.347 432.16C278.58 431.6 278.814 431.04 279.047 430.48C281.754 423.573 284.39 416.667 286.957 409.76C289.57 402.807 292.137 395.853 294.657 388.9C295.404 388.667 296.22 388.457 297.107 388.27C297.994 388.083 298.834 387.99 299.627 387.99C299.814 387.99 299.907 388.06 299.907 388.2L316.077 428.87C316.45 429.757 316.824 430.69 317.197 431.67C317.57 432.603 317.967 433.537 318.387 434.47C318.994 435.683 319.74 436.453 320.627 436.78C321.514 437.107 322.377 437.27 323.217 437.27C324.057 437.27 324.757 437.317 325.317 437.41C325.924 437.503 326.227 437.923 326.227 438.67ZM411.557 438.74C411.557 439.393 411.394 439.79 411.067 439.93C410.787 440.023 410.367 440.07 409.807 440.07C408.5 440.07 407.194 440.047 405.887 440C404.627 439.907 403.344 439.86 402.037 439.86C400.59 439.86 399.144 439.907 397.697 440C396.297 440.093 394.874 440.14 393.427 440.14C392.727 440.14 392.377 439.79 392.377 439.09C392.377 438.297 392.54 437.877 392.867 437.83C393.194 437.783 393.66 437.76 394.267 437.76C396.134 437.76 397.3 437.293 397.767 436.36C398.28 435.427 398.537 434.143 398.537 432.51C398.537 429.617 398.514 426.723 398.467 423.83C398.467 420.937 398.467 418.067 398.467 415.22H369.347V432.58C369.347 433.793 369.557 434.937 369.977 436.01C370.397 437.037 371.354 437.55 372.847 437.55C373.22 437.55 373.594 437.55 373.967 437.55C374.387 437.503 374.807 437.48 375.227 437.48C375.6 437.48 375.834 437.62 375.927 437.9C376.02 438.133 376.067 438.413 376.067 438.74C376.067 439.393 375.904 439.79 375.577 439.93C375.297 440.023 374.877 440.07 374.317 440.07C373.01 440.07 371.704 440.047 370.397 440C369.137 439.907 367.854 439.86 366.547 439.86C365.054 439.86 363.56 439.907 362.067 440C360.574 440.093 359.08 440.14 357.587 440.14C356.887 440.14 356.537 439.79 356.537 439.09C356.537 438.203 356.91 437.76 357.657 437.76C358.404 437.713 359.057 437.69 359.617 437.69C360.597 437.69 361.32 437.41 361.787 436.85C362.3 436.243 362.627 435.543 362.767 434.75C362.954 433.91 363.047 433.117 363.047 432.37C363.047 426.35 363.024 420.353 362.977 414.38C362.977 408.36 362.977 402.34 362.977 396.32C362.977 394.967 362.697 393.777 362.137 392.75C361.624 391.677 360.597 391.14 359.057 391.14C358.684 391.14 358.31 391.163 357.937 391.21C357.61 391.257 357.26 391.28 356.887 391.28C356.234 391.28 355.907 390.907 355.907 390.16C355.907 389.553 356.024 389.157 356.257 388.97C356.49 388.783 356.91 388.69 357.517 388.69C358.87 388.69 360.224 388.737 361.577 388.83C362.977 388.877 364.377 388.9 365.777 388.9C367.084 388.9 368.367 388.877 369.627 388.83C370.934 388.783 372.24 388.713 373.547 388.62C373.734 388.573 373.99 388.55 374.317 388.55C375.064 388.55 375.437 388.947 375.437 389.74C375.437 390.533 375.25 390.93 374.877 390.93C374.504 390.93 374.06 390.93 373.547 390.93C371.634 390.93 370.42 391.42 369.907 392.4C369.44 393.38 369.207 394.687 369.207 396.32C369.207 398.887 369.207 401.5 369.207 404.16C369.254 406.773 369.3 409.387 369.347 412H398.467C398.467 409.387 398.467 406.773 398.467 404.16C398.514 401.547 398.537 398.933 398.537 396.32C398.537 395.107 398.304 393.94 397.837 392.82C397.417 391.7 396.46 391.14 394.967 391.14C394.547 391.14 394.15 391.163 393.777 391.21C393.404 391.257 393.03 391.28 392.657 391.28C392.004 391.28 391.677 390.907 391.677 390.16C391.677 389.507 391.794 389.11 392.027 388.97C392.26 388.783 392.68 388.69 393.287 388.69C394.64 388.69 395.97 388.737 397.277 388.83C398.584 388.877 399.914 388.9 401.267 388.9C402.574 388.9 403.88 388.877 405.187 388.83C406.54 388.783 407.87 388.713 409.177 388.62C409.317 388.573 409.457 388.55 409.597 388.55C409.737 388.55 409.877 388.55 410.017 388.55C410.764 388.55 411.137 388.947 411.137 389.74C411.137 390.487 410.927 390.883 410.507 390.93C410.134 390.93 409.69 390.93 409.177 390.93C407.217 390.93 405.98 391.443 405.467 392.47C405 393.45 404.767 394.78 404.767 396.46C404.767 402.48 404.767 408.5 404.767 414.52C404.814 420.54 404.837 426.56 404.837 432.58C404.837 433.793 405.047 434.937 405.467 436.01C405.887 437.037 406.844 437.55 408.337 437.55C408.71 437.55 409.084 437.55 409.457 437.55C409.877 437.503 410.297 437.48 410.717 437.48C411.09 437.48 411.324 437.62 411.417 437.9C411.51 438.133 411.557 438.413 411.557 438.74ZM482.607 425.65C482.607 421.777 481.674 418.883 479.807 416.97C477.94 415.057 475.07 414.1 471.197 414.1C470.544 414.1 469.914 414.1 469.307 414.1C468.7 414.053 468.07 414.03 467.417 414.03C466.344 414.03 465.27 414.077 464.197 414.17C463.124 414.263 462.05 414.333 460.977 414.38V435.45C460.977 436.29 461.28 436.897 461.887 437.27C462.494 437.597 463.194 437.807 463.987 437.9C464.78 437.993 465.48 438.04 466.087 438.04C468.14 438.04 470.147 437.853 472.107 437.48C474.067 437.06 475.84 436.407 477.427 435.52C479.014 434.587 480.274 433.327 481.207 431.74C482.14 430.107 482.607 428.077 482.607 425.65ZM489.957 424.6C489.957 428.007 489.094 430.877 487.367 433.21C485.687 435.497 483.26 437.247 480.087 438.46C478.08 439.207 475.934 439.65 473.647 439.79C471.407 439.883 469.237 439.93 467.137 439.93C465.41 439.93 463.684 439.907 461.957 439.86C460.277 439.813 458.574 439.79 456.847 439.79C455.4 439.79 453.977 439.837 452.577 439.93C451.177 439.977 449.777 440 448.377 440C447.677 440 447.327 439.65 447.327 438.95C447.327 438.203 447.49 437.853 447.817 437.9C448.19 437.9 448.61 437.9 449.077 437.9C450.57 437.9 451.784 437.713 452.717 437.34C453.697 436.967 454.28 435.917 454.467 434.19C454.56 433.397 454.607 432.58 454.607 431.74C454.607 430.9 454.607 430.083 454.607 429.29C454.607 423.457 454.584 417.647 454.537 411.86C454.537 406.073 454.537 400.287 454.537 394.5C454.537 393.147 454.21 392.26 453.557 391.84C452.95 391.373 452.18 391.14 451.247 391.14C450.314 391.093 449.38 391.07 448.447 391.07C448.074 391.07 447.817 390.977 447.677 390.79C447.584 390.557 447.537 390.277 447.537 389.95C447.537 389.437 447.607 389.063 447.747 388.83C447.934 388.597 448.33 388.48 448.937 388.48C449.777 388.48 450.594 388.503 451.387 388.55C452.227 388.597 453.09 388.62 453.977 388.62C455.517 388.62 457.034 388.62 458.527 388.62C460.067 388.573 461.63 388.55 463.217 388.55C463.777 388.55 464.314 388.527 464.827 388.48C465.387 388.433 465.97 388.41 466.577 388.41C466.81 388.41 466.974 388.527 467.067 388.76C467.207 388.947 467.277 389.157 467.277 389.39C467.277 390.23 466.997 390.65 466.437 390.65C465.877 390.65 465.34 390.65 464.827 390.65C463.474 390.65 462.494 390.883 461.887 391.35C461.28 391.817 460.977 392.773 460.977 394.22V411.93C463.777 411.79 466.647 411.72 469.587 411.72C471.127 411.72 472.667 411.767 474.207 411.86C475.794 411.907 477.334 412.093 478.827 412.42C480.834 412.84 482.677 413.61 484.357 414.73C486.037 415.803 487.39 417.18 488.417 418.86C489.444 420.493 489.957 422.407 489.957 424.6Z" fill="white"/>
</svg>
