<svg width="50" height="52" viewBox="0 0 50 52" fill="none" xmlns="http://www.w3.org/2000/svg">
<path d="M24.1749 25.808C24.1749 28.006 22.7438 29.693 21.0837 29.693C19.4237 29.693 17.9926 28.006 17.9926 25.808C17.9926 23.61 19.4237 21.923 21.0837 21.923C22.7438 21.923 24.1749 23.61 24.1749 25.808Z" stroke="white" stroke-width="0.5"/>
<path d="M20.7953 4.13498C20.7953 6.33301 19.3642 8.01996 17.7042 8.01996C16.0441 8.01996 14.613 6.33301 14.613 4.13498C14.613 1.93695 16.0441 0.25 17.7042 0.25C19.3642 0.25 20.7953 1.93695 20.7953 4.13498Z" stroke="white" stroke-width="0.5"/>
<path d="M14.1514 4.13498C14.1514 6.33301 12.7204 8.01996 11.0603 8.01996C9.40027 8.01996 7.96918 6.33301 7.96918 4.13498C7.96918 1.93695 9.40027 0.25 11.0603 0.25C12.7204 0.25 14.1514 1.93695 14.1514 4.13498Z" stroke="white" stroke-width="0.5"/>
<path d="M17.4926 11.3593C17.4926 13.5573 16.0615 15.2443 14.4014 15.2443C12.7414 15.2443 11.3103 13.5573 11.3103 11.3593C11.3103 9.16129 12.7414 7.47433 14.4014 7.47433C16.0615 7.47433 17.4926 9.16129 17.4926 11.3593Z" stroke="white" stroke-width="0.5"/>
<path d="M34.1598 4.13498C34.1598 6.33301 32.7287 8.01996 31.0687 8.01996C29.4087 8.01996 27.9776 6.33301 27.9776 4.13498C27.9776 1.93695 29.4087 0.25 31.0687 0.25C32.7287 0.25 34.1598 1.93695 34.1598 4.13498Z" stroke="white" stroke-width="0.5"/>
<path d="M40.8037 4.13498C40.8037 6.33301 39.3726 8.01996 37.7126 8.01996C36.0525 8.01996 34.6214 6.33301 34.6214 4.13498C34.6214 1.93695 36.0525 0.25 37.7126 0.25C39.3726 0.25 40.8037 1.93695 40.8037 4.13498Z" stroke="white" stroke-width="0.5"/>
<path d="M27.4776 4.13498C27.4776 6.33301 26.0465 8.01996 24.3864 8.01996C22.7264 8.01996 21.2953 6.33301 21.2953 4.13498C21.2953 1.93695 22.7264 0.25 24.3864 0.25C26.0465 0.25 27.4776 1.93695 27.4776 4.13498Z" stroke="white" stroke-width="0.5"/>
<path d="M27.5544 33.0323C27.5544 35.2303 26.1233 36.9173 24.4632 36.9173C22.8032 36.9173 21.3721 35.2303 21.3721 33.0323C21.3721 30.8343 22.8032 29.1473 24.4632 29.1473C26.1233 29.1473 27.5544 30.8343 27.5544 33.0323Z" stroke="white" stroke-width="0.5"/>
<path d="M30.8187 25.808C30.8187 28.006 29.3876 29.693 27.7276 29.693C26.0675 29.693 24.6364 28.006 24.6364 25.808C24.6364 23.61 26.0675 21.923 27.7276 21.923C29.3876 21.923 30.8187 23.61 30.8187 25.808Z" stroke="white" stroke-width="0.5"/>
<path d="M27.516 18.5837C27.516 20.7817 26.0849 22.4686 24.4248 22.4686C22.7648 22.4686 21.3337 20.7817 21.3337 18.5837C21.3337 16.3856 22.7648 14.6987 24.4248 14.6987C26.0849 14.6987 27.516 16.3856 27.516 18.5837Z" stroke="white" stroke-width="0.5"/>
<path d="M24.1364 11.3593C24.1364 13.5573 22.7053 15.2443 21.0453 15.2443C19.3853 15.2443 17.9542 13.5573 17.9542 11.3593C17.9542 9.16129 19.3853 7.47433 21.0453 7.47433C22.7053 7.47433 24.1364 9.16129 24.1364 11.3593Z" stroke="white" stroke-width="0.5"/>
<path d="M20.8721 18.5837C20.8721 20.7817 19.441 22.4686 17.781 22.4686C16.1209 22.4686 14.6898 20.7817 14.6898 18.5837C14.6898 16.3856 16.1209 14.6987 17.781 14.6987C19.441 14.6987 20.8721 16.3856 20.8721 18.5837Z" stroke="white" stroke-width="0.5"/>
<path d="M30.8187 11.3593C30.8187 13.5573 29.3876 15.2443 27.7276 15.2443C26.0675 15.2443 24.6364 13.5573 24.6364 11.3593C24.6364 9.16129 26.0675 7.47433 27.7276 7.47433C29.3876 7.47433 30.8187 9.16129 30.8187 11.3593Z" stroke="white" stroke-width="0.5"/>
<path d="M37.501 11.3593C37.501 13.5573 36.0699 15.2443 34.4098 15.2443C32.7498 15.2443 31.3187 13.5573 31.3187 11.3593C31.3187 9.16129 32.7498 7.47433 34.4098 7.47433C36.0699 7.47433 37.501 9.16129 37.501 11.3593Z" stroke="white" stroke-width="0.5"/>
<path d="M34.1982 18.5837C34.1982 20.7817 32.7672 22.4686 31.1071 22.4686C29.4471 22.4686 28.016 20.7817 28.016 18.5837C28.016 16.3856 29.4471 14.6987 31.1071 14.6987C32.7672 14.6987 34.1982 16.3856 34.1982 18.5837Z" stroke="white" stroke-width="0.5"/>
<line x1="33.4113" y1="25.6055" x2="48.7729" y2="25.6055" stroke="white" stroke-width="0.5"/>
<line y1="25.6055" x2="15.3615" y2="25.6055" stroke="white" stroke-width="0.5"/>
<path d="M5.9547 44.9034C5.9547 44.9402 5.9386 44.9632 5.9064 44.9724C5.8742 44.9816 5.8443 44.9862 5.8167 44.9862H4.7886C4.7334 44.9862 4.6874 44.9839 4.6506 44.9793C4.6184 44.9701 4.5816 44.9448 4.5402 44.9034C4.4988 44.862 4.462 44.8183 4.4298 44.7723C4.3976 44.7217 4.3631 44.6734 4.3263 44.6274C4.2527 44.5262 4.1791 44.4273 4.1055 44.3307C4.0319 44.2341 3.956 44.1375 3.8778 44.0409L2.6565 42.4194L2.2839 42.7092C2.2839 42.9668 2.2816 43.2267 2.277 43.4889C2.277 43.7465 2.277 44.0041 2.277 44.2617C2.277 44.3767 2.3 44.4894 2.346 44.5998C2.392 44.7056 2.4863 44.7585 2.6289 44.7585C2.6657 44.7585 2.7025 44.7585 2.7393 44.7585C2.7807 44.7539 2.8198 44.7516 2.8566 44.7516C2.8934 44.7516 2.921 44.7654 2.9394 44.793C2.9578 44.816 2.967 44.8459 2.967 44.8827C2.967 44.9425 2.9509 44.9793 2.9187 44.9931C2.8911 45.0023 2.852 45.0069 2.8014 45.0069C2.6726 45.0069 2.5415 45.0046 2.4081 45C2.2793 44.9908 2.1482 44.9862 2.0148 44.9862C1.8538 44.9862 1.6928 44.9885 1.5318 44.9931C1.3708 44.9977 1.2098 45 1.0488 45C1.0028 45 0.9729 44.9885 0.9591 44.9655C0.9499 44.9379 0.9453 44.9057 0.9453 44.8689C0.9453 44.8137 0.9729 44.7792 1.0281 44.7654C1.0879 44.7516 1.1546 44.7447 1.2282 44.7447C1.3064 44.7401 1.3685 44.7286 1.4145 44.7102C1.5157 44.6734 1.5801 44.6067 1.6077 44.5101C1.6353 44.4135 1.6491 44.3169 1.6491 44.2203C1.6491 43.6269 1.6468 43.0358 1.6422 42.447C1.6422 41.8536 1.6422 41.2602 1.6422 40.6668C1.6422 40.5426 1.6192 40.4322 1.5732 40.3356C1.5318 40.2344 1.4375 40.1838 1.2903 40.1838C1.2581 40.1838 1.2236 40.1861 1.1868 40.1907C1.1546 40.1907 1.1201 40.1907 1.0833 40.1907C0.9959 40.1907 0.9522 40.147 0.9522 40.0596C0.9522 39.9998 0.9637 39.963 0.9867 39.9492C1.0143 39.9354 1.0557 39.9285 1.1109 39.9285C1.3041 39.9285 1.4973 39.9308 1.6905 39.9354C1.8837 39.94 2.0769 39.9423 2.2701 39.9423C2.3621 39.9423 2.4541 39.94 2.5461 39.9354C2.6381 39.9308 2.7301 39.9285 2.8221 39.9285C2.8589 39.9285 2.8888 39.9354 2.9118 39.9492C2.9394 39.9584 2.9532 39.9837 2.9532 40.0251C2.9532 40.1033 2.9302 40.1516 2.8842 40.17C2.8382 40.1838 2.7807 40.1907 2.7117 40.1907C2.6473 40.1861 2.5806 40.193 2.5116 40.2114C2.4426 40.2252 2.3851 40.2689 2.3391 40.3425C2.2931 40.4115 2.2701 40.5288 2.2701 40.6944C2.2701 40.9888 2.2724 41.2832 2.277 41.5776C2.2816 41.872 2.2793 42.1664 2.2701 42.4608C2.6565 42.1066 3.0383 41.7478 3.4155 41.3844C3.7927 41.021 4.1538 40.6438 4.4988 40.2528C4.5402 40.2022 4.5816 40.1539 4.623 40.1079C4.669 40.0573 4.7081 40.0067 4.7403 39.9561C4.7633 39.9469 4.8093 39.94 4.8783 39.9354C4.9473 39.9308 5.0186 39.9285 5.0922 39.9285C5.1704 39.9285 5.2233 39.9285 5.2509 39.9285C5.2785 39.9285 5.3176 39.9285 5.3682 39.9285C5.4188 39.9239 5.4625 39.9285 5.4993 39.9423C5.5407 39.9515 5.5614 39.9791 5.5614 40.0251C5.5614 40.0573 5.5545 40.0803 5.5407 40.0941C5.5315 40.1033 5.5131 40.1125 5.4855 40.1217C5.4257 40.1401 5.3659 40.1539 5.3061 40.1631C5.2463 40.1723 5.1865 40.1884 5.1267 40.2114C5.0761 40.2298 5.0278 40.2574 4.9818 40.2942C4.9404 40.331 4.9013 40.3678 4.8645 40.4046L3.1395 42.0123C3.4293 42.3619 3.7122 42.7184 3.9882 43.0818C4.2688 43.4452 4.5586 43.7971 4.8576 44.1375C4.922 44.2111 4.9887 44.2824 5.0577 44.3514C5.1313 44.4204 5.2049 44.4871 5.2785 44.5515C5.3751 44.6343 5.4671 44.6849 5.5545 44.7033C5.6419 44.7171 5.7408 44.7424 5.8512 44.7792C5.888 44.793 5.9133 44.8068 5.9271 44.8206C5.9455 44.8344 5.9547 44.862 5.9547 44.9034ZM14.2485 40.0596C14.2485 40.1332 14.2232 40.1723 14.1726 40.1769C14.1266 40.1815 14.0783 40.1838 14.0277 40.1838C13.8943 40.1838 13.7954 40.2022 13.731 40.239C13.6712 40.2712 13.6068 40.3471 13.5378 40.4667C13.4642 40.5955 13.3952 40.7289 13.3308 40.8669C13.271 41.0049 13.2089 41.1429 13.1445 41.2809C13.0157 41.5523 12.8823 41.826 12.7443 42.102C12.6109 42.3734 12.4775 42.6448 12.3441 42.9162C12.2383 43.1416 12.1302 43.367 12.0198 43.5924C11.914 43.8178 11.7944 44.0386 11.661 44.2548C11.5184 44.4986 11.3413 44.701 11.1297 44.862C10.9181 45.023 10.6628 45.1035 10.3638 45.1035C10.2488 45.1035 10.1361 45.0851 10.0257 45.0483C9.9153 45.0161 9.8233 44.9609 9.7497 44.8827C9.6761 44.8045 9.6393 44.6964 9.6393 44.5584C9.6393 44.3974 9.6876 44.2893 9.7842 44.2341C9.8808 44.1789 10.0004 44.1513 10.143 44.1513C10.1706 44.3123 10.2327 44.4434 10.3293 44.5446C10.4259 44.6412 10.5593 44.6895 10.7295 44.6895C10.9089 44.6895 11.0446 44.6366 11.1366 44.5308C11.2332 44.4204 11.3183 44.2939 11.3919 44.1513C11.4425 44.0455 11.4862 43.9374 11.523 43.827C11.5598 43.7166 11.5782 43.6039 11.5782 43.4889C11.5782 43.4567 11.5736 43.4245 11.5644 43.3923C11.5598 43.3601 11.5529 43.3279 11.5437 43.2957C11.4747 43.0887 11.3896 42.8886 11.2884 42.6954C11.1872 42.5022 11.0929 42.3067 11.0055 42.1089C10.9641 42.0123 10.9066 41.8858 10.833 41.7294C10.764 41.5684 10.6881 41.4005 10.6053 41.2257C10.5225 41.0509 10.4397 40.8922 10.3569 40.7496C10.2787 40.6024 10.212 40.4943 10.1568 40.4253C10.074 40.3333 9.9935 40.285 9.9153 40.2804C9.8371 40.2712 9.7428 40.2666 9.6324 40.2666C9.591 40.2666 9.5565 40.2597 9.5289 40.2459C9.5059 40.2321 9.4944 40.1999 9.4944 40.1493C9.4944 40.0987 9.522 40.0596 9.5772 40.032C9.5864 40.0274 9.6393 40.0205 9.7359 40.0113C9.8371 39.9975 9.9544 39.986 10.0878 39.9768C10.2212 39.963 10.3408 39.9538 10.4466 39.9492C10.557 39.94 10.626 39.9354 10.6536 39.9354C10.7042 39.9354 10.7364 39.9584 10.7502 40.0044C10.7732 40.0228 10.7916 40.0458 10.8054 40.0734C10.8238 40.0964 10.8376 40.1194 10.8468 40.1424C11.0676 40.6024 11.2723 41.0716 11.4609 41.55C11.6541 42.0238 11.8496 42.493 12.0474 42.9576C12.0796 42.8932 12.1256 42.7943 12.1854 42.6609C12.2498 42.5275 12.3211 42.3734 12.3993 42.1986C12.4821 42.0192 12.5649 41.8375 12.6477 41.6535C12.7305 41.4649 12.8064 41.2855 12.8754 41.1153C12.9444 40.9451 12.9996 40.7979 13.041 40.6737C13.087 40.5495 13.11 40.4667 13.11 40.4253C13.11 40.4023 13.11 40.3793 13.11 40.3563C13.1146 40.3333 13.1169 40.3103 13.1169 40.2873C13.1169 40.2505 13.1008 40.2252 13.0686 40.2114C13.0456 40.193 12.9996 40.1838 12.9306 40.1838C12.8662 40.1792 12.7995 40.1769 12.7305 40.1769C12.6615 40.1769 12.6109 40.1769 12.5787 40.1769C12.5373 40.1769 12.5028 40.17 12.4752 40.1562C12.4476 40.1378 12.4338 40.1056 12.4338 40.0596C12.4338 40.009 12.4545 39.9768 12.4959 39.963C12.5419 39.9446 12.5902 39.9354 12.6408 39.9354C12.696 39.9354 12.7397 39.9354 12.7719 39.9354C12.8777 39.9354 12.9812 39.9377 13.0824 39.9423C13.1882 39.9469 13.294 39.9492 13.3998 39.9492C13.524 39.9492 13.6482 39.9469 13.7724 39.9423C13.8966 39.9331 14.0231 39.9285 14.1519 39.9285C14.1933 39.9285 14.2186 39.9423 14.2278 39.9699C14.2416 39.9929 14.2485 40.0228 14.2485 40.0596ZM21.8247 43.5717C21.8247 43.1899 21.7327 42.9047 21.5487 42.7161C21.3647 42.5229 21.0818 42.4263 20.7 42.4263C20.6402 42.4263 20.5781 42.4263 20.5137 42.4263C20.4539 42.4217 20.3918 42.4194 20.3274 42.4194C20.171 42.4194 20.0123 42.424 19.8513 42.4332C19.6903 42.4378 19.5293 42.4447 19.3683 42.4539V44.5446C19.3683 44.6274 19.3982 44.6895 19.458 44.7309C19.5178 44.7677 19.5868 44.7907 19.665 44.7999C19.7432 44.8091 19.8122 44.8137 19.872 44.8137C19.964 44.8137 20.056 44.8137 20.148 44.8137C20.24 44.8091 20.332 44.8045 20.424 44.7999C20.6816 44.7861 20.9162 44.7378 21.1278 44.655C21.3394 44.5676 21.5073 44.4365 21.6315 44.2617C21.7603 44.0823 21.8247 43.8523 21.8247 43.5717ZM22.5492 43.4682C22.5492 43.804 22.4664 44.0915 22.3008 44.3307C22.1352 44.5653 21.896 44.7424 21.5832 44.862C21.39 44.9356 21.1761 44.9793 20.9415 44.9931C20.7069 45.0023 20.4884 45.0069 20.286 45.0069C20.0652 45.0069 19.8444 45.0046 19.6236 45C19.4028 44.9908 19.182 44.9862 18.9612 44.9862C18.8232 44.9862 18.6829 44.9908 18.5403 45C18.4023 45.0046 18.2643 45.0069 18.1263 45.0069C18.0573 45.0069 18.0228 44.9701 18.0228 44.8965C18.0228 44.8781 18.0274 44.8574 18.0366 44.8344C18.0458 44.8068 18.0596 44.793 18.078 44.793C18.1424 44.793 18.2068 44.793 18.2712 44.793C18.3356 44.7884 18.3977 44.7792 18.4575 44.7654C18.5633 44.7424 18.6323 44.7056 18.6645 44.655C18.6967 44.5998 18.7174 44.5216 18.7266 44.4204C18.7358 44.3238 18.7404 44.2272 18.7404 44.1306C18.7404 44.034 18.7404 43.9397 18.7404 43.8477C18.7404 43.2911 18.7381 42.7368 18.7335 42.1848C18.7335 41.6282 18.7335 41.0739 18.7335 40.5219C18.7335 40.4483 18.722 40.3839 18.699 40.3287C18.676 40.2735 18.6277 40.2321 18.5541 40.2045C18.5081 40.1815 18.4437 40.17 18.3609 40.17C18.2827 40.17 18.2183 40.17 18.1677 40.17C18.0895 40.17 18.0504 40.1332 18.0504 40.0596C18.0504 40.0412 18.055 40.0159 18.0642 39.9837C18.078 39.9515 18.0964 39.9354 18.1194 39.9354C18.1792 39.9354 18.2367 39.9377 18.2919 39.9423C18.3517 39.9469 18.4115 39.9492 18.4713 39.9492C18.7427 39.9492 19.0141 39.9515 19.2855 39.9561C19.5569 39.9607 19.826 39.963 20.0928 39.963C20.2768 39.963 20.4608 39.9607 20.6448 39.9561C20.8288 39.9515 21.0128 39.9469 21.1968 39.9423C21.3118 39.9377 21.4245 39.9331 21.5349 39.9285C21.6453 39.9193 21.758 39.9147 21.873 39.9147C21.896 39.9147 21.9098 39.9239 21.9144 39.9423C21.9236 39.9607 21.9374 40.0182 21.9558 40.1148C21.9742 40.2114 21.9926 40.3195 22.011 40.4391C22.034 40.5587 22.0524 40.6668 22.0662 40.7634C22.0846 40.86 22.0938 40.9198 22.0938 40.9428C22.0938 40.9796 22.08 41.0118 22.0524 41.0394C22.0248 41.0624 21.9926 41.0739 21.9558 41.0739C21.9144 41.0739 21.8868 41.0509 21.873 41.0049C21.8132 40.8301 21.7488 40.6875 21.6798 40.5771C21.6108 40.4667 21.482 40.3747 21.2934 40.3011C21.1968 40.2643 21.0726 40.2367 20.9208 40.2183C20.7736 40.1999 20.6241 40.1884 20.4723 40.1838C20.3205 40.1792 20.1894 40.1769 20.079 40.1769C20.0468 40.1769 19.9824 40.1769 19.8858 40.1769C19.7938 40.1769 19.7018 40.1792 19.6098 40.1838C19.5224 40.1838 19.4695 40.1884 19.4511 40.1976C19.4281 40.2068 19.4074 40.2183 19.389 40.2321C19.3752 40.2459 19.3683 40.2689 19.3683 40.3011V42.2262C19.5707 42.217 19.7754 42.2101 19.9824 42.2055C20.1894 42.2009 20.3941 42.1986 20.5965 42.1986C20.7437 42.1986 20.8886 42.2009 21.0312 42.2055C21.1738 42.2101 21.3141 42.2285 21.4521 42.2607C21.6545 42.3067 21.8385 42.3849 22.0041 42.4953C22.1697 42.6011 22.3008 42.7368 22.3974 42.9024C22.4986 43.0634 22.5492 43.252 22.5492 43.4682ZM29.3595 42.9783C29.2031 42.5551 29.049 42.1319 28.8972 41.7087C28.7454 41.2809 28.589 40.8554 28.428 40.4322C28.2716 40.86 28.1129 41.2878 27.9519 41.7156C27.7955 42.1388 27.6299 42.5597 27.4551 42.9783H29.3595ZM31.4571 44.8689C31.4571 44.9011 31.4502 44.931 31.4364 44.9586C31.4226 44.9862 31.3973 45 31.3605 45C31.2179 45 31.0776 44.9977 30.9396 44.9931C30.8016 44.9885 30.6636 44.9862 30.5256 44.9862C30.3324 44.9862 30.1415 44.9885 29.9529 44.9931C29.7643 44.9977 29.5757 45 29.3871 45C29.3641 45 29.348 44.9862 29.3388 44.9586C29.3296 44.9264 29.325 44.9034 29.325 44.8896C29.325 44.8252 29.3549 44.7907 29.4147 44.7861C29.4791 44.7769 29.532 44.7723 29.5734 44.7723C29.647 44.7723 29.7252 44.7654 29.808 44.7516C29.8908 44.7332 29.9322 44.6734 29.9322 44.5722C29.9322 44.5308 29.9115 44.448 29.8701 44.3238C29.8287 44.1996 29.7781 44.0616 29.7183 43.9098C29.6585 43.758 29.601 43.6177 29.5458 43.4889C29.4952 43.3555 29.4584 43.2589 29.4354 43.1991H27.3999C27.3861 43.2359 27.3585 43.3072 27.3171 43.413C27.2803 43.5142 27.2366 43.6315 27.186 43.7649C27.14 43.8937 27.094 44.0225 27.048 44.1513C27.002 44.2755 26.9629 44.3836 26.9307 44.4756C26.9031 44.5676 26.8893 44.6228 26.8893 44.6412C26.8893 44.6872 26.9146 44.7217 26.9652 44.7447C27.0158 44.7677 27.0779 44.7815 27.1515 44.7861C27.2251 44.7907 27.2941 44.793 27.3585 44.793C27.4275 44.7884 27.4781 44.7861 27.5103 44.7861C27.5471 44.7861 27.5678 44.7999 27.5724 44.8275C27.5816 44.8505 27.5862 44.8758 27.5862 44.9034C27.5862 44.9678 27.554 45 27.4896 45H26.0406C26.0084 45 25.9854 44.9885 25.9716 44.9655C25.9624 44.9425 25.9578 44.9195 25.9578 44.8965C25.9578 44.8229 25.9946 44.7861 26.0682 44.7861C26.22 44.7861 26.3419 44.7539 26.4339 44.6895C26.5259 44.6205 26.6041 44.5193 26.6685 44.3859C26.6915 44.3353 26.7145 44.2824 26.7375 44.2272C26.7605 44.172 26.7835 44.1168 26.8065 44.0616C27.0733 43.3808 27.3332 42.7 27.5862 42.0192C27.8438 41.3338 28.0968 40.6484 28.3452 39.963C28.4188 39.94 28.4993 39.9193 28.5867 39.9009C28.6741 39.8825 28.7569 39.8733 28.8351 39.8733C28.8535 39.8733 28.8627 39.8802 28.8627 39.894L30.4566 43.9029C30.4934 43.9903 30.5302 44.0823 30.567 44.1789C30.6038 44.2709 30.6429 44.3629 30.6843 44.4549C30.7441 44.5745 30.8177 44.6504 30.9051 44.6826C30.9925 44.7148 31.0776 44.7309 31.1604 44.7309C31.2432 44.7309 31.3122 44.7355 31.3674 44.7447C31.4272 44.7539 31.4571 44.7953 31.4571 44.8689ZM39.8682 44.8758C39.8682 44.9402 39.8521 44.9793 39.8199 44.9931C39.7923 45.0023 39.7509 45.0069 39.6957 45.0069C39.5669 45.0069 39.4381 45.0046 39.3093 45C39.1851 44.9908 39.0586 44.9862 38.9298 44.9862C38.7872 44.9862 38.6446 44.9908 38.502 45C38.364 45.0092 38.2237 45.0138 38.0811 45.0138C38.0121 45.0138 37.9776 44.9793 37.9776 44.9103C37.9776 44.8321 37.9937 44.7907 38.0259 44.7861C38.0581 44.7815 38.1041 44.7792 38.1639 44.7792C38.3479 44.7792 38.4629 44.7332 38.5089 44.6412C38.5595 44.5492 38.5848 44.4227 38.5848 44.2617C38.5848 43.9765 38.5825 43.6913 38.5779 43.4061C38.5779 43.1209 38.5779 42.838 38.5779 42.5574H35.7075V44.2686C35.7075 44.3882 35.7282 44.5009 35.7696 44.6067C35.811 44.7079 35.9053 44.7585 36.0525 44.7585C36.0893 44.7585 36.1261 44.7585 36.1629 44.7585C36.2043 44.7539 36.2457 44.7516 36.2871 44.7516C36.3239 44.7516 36.3469 44.7654 36.3561 44.793C36.3653 44.816 36.3699 44.8436 36.3699 44.8758C36.3699 44.9402 36.3538 44.9793 36.3216 44.9931C36.294 45.0023 36.2526 45.0069 36.1974 45.0069C36.0686 45.0069 35.9398 45.0046 35.811 45C35.6868 44.9908 35.5603 44.9862 35.4315 44.9862C35.2843 44.9862 35.1371 44.9908 34.9899 45C34.8427 45.0092 34.6955 45.0138 34.5483 45.0138C34.4793 45.0138 34.4448 44.9793 34.4448 44.9103C34.4448 44.8229 34.4816 44.7792 34.5552 44.7792C34.6288 44.7746 34.6932 44.7723 34.7484 44.7723C34.845 44.7723 34.9163 44.7447 34.9623 44.6895C35.0129 44.6297 35.0451 44.5607 35.0589 44.4825C35.0773 44.3997 35.0865 44.3215 35.0865 44.2479C35.0865 43.6545 35.0842 43.0634 35.0796 42.4746C35.0796 41.8812 35.0796 41.2878 35.0796 40.6944C35.0796 40.561 35.052 40.4437 34.9968 40.3425C34.9462 40.2367 34.845 40.1838 34.6932 40.1838C34.6564 40.1838 34.6196 40.1861 34.5828 40.1907C34.5506 40.1953 34.5161 40.1976 34.4793 40.1976C34.4149 40.1976 34.3827 40.1608 34.3827 40.0872C34.3827 40.0274 34.3942 39.9883 34.4172 39.9699C34.4402 39.9515 34.4816 39.9423 34.5414 39.9423C34.6748 39.9423 34.8082 39.9469 34.9416 39.9561C35.0796 39.9607 35.2176 39.963 35.3556 39.963C35.4844 39.963 35.6109 39.9607 35.7351 39.9561C35.8639 39.9515 35.9927 39.9446 36.1215 39.9354C36.1399 39.9308 36.1652 39.9285 36.1974 39.9285C36.271 39.9285 36.3078 39.9676 36.3078 40.0458C36.3078 40.124 36.2894 40.1631 36.2526 40.1631C36.2158 40.1631 36.1721 40.1631 36.1215 40.1631C35.9329 40.1631 35.8133 40.2114 35.7627 40.308C35.7167 40.4046 35.6937 40.5334 35.6937 40.6944C35.6937 40.9474 35.6937 41.205 35.6937 41.4672C35.6983 41.7248 35.7029 41.9824 35.7075 42.24H38.5779C38.5779 41.9824 38.5779 41.7248 38.5779 41.4672C38.5825 41.2096 38.5848 40.952 38.5848 40.6944C38.5848 40.5748 38.5618 40.4598 38.5158 40.3494C38.4744 40.239 38.3801 40.1838 38.2329 40.1838C38.1915 40.1838 38.1524 40.1861 38.1156 40.1907C38.0788 40.1953 38.042 40.1976 38.0052 40.1976C37.9408 40.1976 37.9086 40.1608 37.9086 40.0872C37.9086 40.0228 37.9201 39.9837 37.9431 39.9699C37.9661 39.9515 38.0075 39.9423 38.0673 39.9423C38.2007 39.9423 38.3318 39.9469 38.4606 39.9561C38.5894 39.9607 38.7205 39.963 38.8539 39.963C38.9827 39.963 39.1115 39.9607 39.2403 39.9561C39.3737 39.9515 39.5048 39.9446 39.6336 39.9354C39.6474 39.9308 39.6612 39.9285 39.675 39.9285C39.6888 39.9285 39.7026 39.9285 39.7164 39.9285C39.79 39.9285 39.8268 39.9676 39.8268 40.0458C39.8268 40.1194 39.8061 40.1585 39.7647 40.1631C39.7279 40.1631 39.6842 40.1631 39.6336 40.1631C39.4404 40.1631 39.3185 40.2137 39.2679 40.3149C39.2219 40.4115 39.1989 40.5426 39.1989 40.7082C39.1989 41.3016 39.1989 41.895 39.1989 42.4884C39.2035 43.0818 39.2058 43.6752 39.2058 44.2686C39.2058 44.3882 39.2265 44.5009 39.2679 44.6067C39.3093 44.7079 39.4036 44.7585 39.5508 44.7585C39.5876 44.7585 39.6244 44.7585 39.6612 44.7585C39.7026 44.7539 39.744 44.7516 39.7854 44.7516C39.8222 44.7516 39.8452 44.7654 39.8544 44.793C39.8636 44.816 39.8682 44.8436 39.8682 44.8758ZM46.8717 43.5855C46.8717 43.2037 46.7797 42.9185 46.5957 42.7299C46.4117 42.5413 46.1288 42.447 45.747 42.447C45.6826 42.447 45.6205 42.447 45.5607 42.447C45.5009 42.4424 45.4388 42.4401 45.3744 42.4401C45.2686 42.4401 45.1628 42.4447 45.057 42.4539C44.9512 42.4631 44.8454 42.47 44.7396 42.4746V44.5515C44.7396 44.6343 44.7695 44.6941 44.8293 44.7309C44.8891 44.7631 44.9581 44.7838 45.0363 44.793C45.1145 44.8022 45.1835 44.8068 45.2433 44.8068C45.4457 44.8068 45.6435 44.7884 45.8367 44.7516C46.0299 44.7102 46.2047 44.6458 46.3611 44.5584C46.5175 44.4664 46.6417 44.3422 46.7337 44.1858C46.8257 44.0248 46.8717 43.8247 46.8717 43.5855ZM47.5962 43.482C47.5962 43.8178 47.5111 44.1007 47.3409 44.3307C47.1753 44.5561 46.9361 44.7286 46.6233 44.8482C46.4255 44.9218 46.2139 44.9655 45.9885 44.9793C45.7677 44.9885 45.5538 44.9931 45.3468 44.9931C45.1766 44.9931 45.0064 44.9908 44.8362 44.9862C44.6706 44.9816 44.5027 44.9793 44.3325 44.9793C44.1899 44.9793 44.0496 44.9839 43.9116 44.9931C43.7736 44.9977 43.6356 45 43.4976 45C43.4286 45 43.3941 44.9655 43.3941 44.8965C43.3941 44.8229 43.4102 44.7884 43.4424 44.793C43.4792 44.793 43.5206 44.793 43.5666 44.793C43.7138 44.793 43.8334 44.7746 43.9254 44.7378C44.022 44.701 44.0795 44.5975 44.0979 44.4273C44.1071 44.3491 44.1117 44.2686 44.1117 44.1858C44.1117 44.103 44.1117 44.0225 44.1117 43.9443C44.1117 43.3693 44.1094 42.7966 44.1048 42.2262C44.1048 41.6558 44.1048 41.0854 44.1048 40.515C44.1048 40.3816 44.0726 40.2942 44.0082 40.2528C43.9484 40.2068 43.8725 40.1838 43.7805 40.1838C43.6885 40.1792 43.5965 40.1769 43.5045 40.1769C43.4677 40.1769 43.4424 40.1677 43.4286 40.1493C43.4194 40.1263 43.4148 40.0987 43.4148 40.0665C43.4148 40.0159 43.4217 39.9791 43.4355 39.9561C43.4539 39.9331 43.493 39.9216 43.5528 39.9216C43.6356 39.9216 43.7161 39.9239 43.7943 39.9285C43.8771 39.9331 43.9622 39.9354 44.0496 39.9354C44.2014 39.9354 44.3509 39.9354 44.4981 39.9354C44.6499 39.9308 44.804 39.9285 44.9604 39.9285C45.0156 39.9285 45.0685 39.9262 45.1191 39.9216C45.1743 39.917 45.2318 39.9147 45.2916 39.9147C45.3146 39.9147 45.3307 39.9262 45.3399 39.9492C45.3537 39.9676 45.3606 39.9883 45.3606 40.0113C45.3606 40.0941 45.333 40.1355 45.2778 40.1355C45.2226 40.1355 45.1697 40.1355 45.1191 40.1355C44.9857 40.1355 44.8891 40.1585 44.8293 40.2045C44.7695 40.2505 44.7396 40.3448 44.7396 40.4874V42.2331C45.0156 42.2193 45.2985 42.2124 45.5883 42.2124C45.7401 42.2124 45.8919 42.217 46.0437 42.2262C46.2001 42.2308 46.3519 42.2492 46.4991 42.2814C46.6969 42.3228 46.8786 42.3987 47.0442 42.5091C47.2098 42.6149 47.3432 42.7506 47.4444 42.9162C47.5456 43.0772 47.5962 43.2658 47.5962 43.482Z" fill="white"/>
</svg>
